<?xml version="1.0" encoding="utf-8" standalone="no"?>
<!DOCTYPE svg PUBLIC "-//W3C//DTD SVG 1.1//EN"
  "http://www.w3.org/Graphics/SVG/1.1/DTD/svg11.dtd">
<svg xmlns:xlink="http://www.w3.org/1999/xlink" width="460.8pt" height="345.6pt" viewBox="0 0 460.8 345.6" xmlns="http://www.w3.org/2000/svg" version="1.1">
 <metadata>
  <rdf:RDF xmlns:dc="http://purl.org/dc/elements/1.1/" xmlns:cc="http://creativecommons.org/ns#" xmlns:rdf="http://www.w3.org/1999/02/22-rdf-syntax-ns#">
   <cc:Work>
    <dc:type rdf:resource="http://purl.org/dc/dcmitype/StillImage"/>
    <dc:date>2025-11-19T11:38:41.304176</dc:date>
    <dc:format>image/svg+xml</dc:format>
    <dc:creator>
     <cc:Agent>
      <dc:title>Matplotlib v3.10.7, https://matplotlib.org/</dc:title>
     </cc:Agent>
    </dc:creator>
   </cc:Work>
  </rdf:RDF>
 </metadata>
 <defs>
  <style type="text/css">*{stroke-linejoin: round; stroke-linecap: butt}</style>
 </defs>
 <g id="figure_1">
  <g id="patch_1">
   <path d="M 0 345.6 
L 460.8 345.6 
L 460.8 0 
L 0 0 
z
" style="fill: #ffffff"/>
  </g>
  <g id="axes_1">
   <g id="patch_2">
    <path d="M 57.6 307.584 
L 414.72 307.584 
L 414.72 41.472 
L 57.6 41.472 
z
" style="fill: #ffffff"/>
   </g>
   <g id="matplotlib.axis_1">
    <g id="xtick_1">
     <g id="line2d_1">
      <path d="M 73.180811 307.584 
L 73.180811 41.472 
" clip-path="url(#p6bf0ac67d5)" style="fill: none; stroke: #b0b0b0; stroke-width: 0.8; stroke-linecap: square"/>
     </g>
     <g id="line2d_2">
      <defs>
       <path id="m353db543ef" d="M 0 0 
L 0 3.5 
" style="stroke: #000000; stroke-width: 0.8"/>
      </defs>
      <g>
       <use xlink:href="#m353db543ef" x="73.180811" y="307.584" style="stroke: #000000; stroke-width: 0.8"/>
      </g>
     </g>
     <g id="text_1">
      <!-- 0 -->
      <g transform="translate(69.999561 322.182437) scale(0.1 -0.1)">
       <defs>
        <path id="DejaVuSans-30" d="M 2034 4250 
Q 1547 4250 1301 3770 
Q 1056 3291 1056 2328 
Q 1056 1369 1301 889 
Q 1547 409 2034 409 
Q 2525 409 2770 889 
Q 3016 1369 3016 2328 
Q 3016 3291 2770 3770 
Q 2525 4250 2034 4250 
z
M 2034 4750 
Q 2819 4750 3233 4129 
Q 3647 3509 3647 2328 
Q 3647 1150 3233 529 
Q 2819 -91 2034 -91 
Q 1250 -91 836 529 
Q 422 1150 422 2328 
Q 422 3509 836 4129 
Q 1250 4750 2034 4750 
z
" transform="scale(0.015625)"/>
       </defs>
       <use xlink:href="#DejaVuSans-30"/>
      </g>
     </g>
    </g>
    <g id="xtick_2">
     <g id="line2d_3">
      <path d="M 138.372486 307.584 
L 138.372486 41.472 
" clip-path="url(#p6bf0ac67d5)" style="fill: none; stroke: #b0b0b0; stroke-width: 0.8; stroke-linecap: square"/>
     </g>
     <g id="line2d_4">
      <g>
       <use xlink:href="#m353db543ef" x="138.372486" y="307.584" style="stroke: #000000; stroke-width: 0.8"/>
      </g>
     </g>
     <g id="text_2">
      <!-- 100 -->
      <g transform="translate(128.828736 322.182437) scale(0.1 -0.1)">
       <defs>
        <path id="DejaVuSans-31" d="M 794 531 
L 1825 531 
L 1825 4091 
L 703 3866 
L 703 4441 
L 1819 4666 
L 2450 4666 
L 2450 531 
L 3481 531 
L 3481 0 
L 794 0 
L 794 531 
z
" transform="scale(0.015625)"/>
       </defs>
       <use xlink:href="#DejaVuSans-31"/>
       <use xlink:href="#DejaVuSans-30" transform="translate(63.623047 0)"/>
       <use xlink:href="#DejaVuSans-30" transform="translate(127.246094 0)"/>
      </g>
     </g>
    </g>
    <g id="xtick_3">
     <g id="line2d_5">
      <path d="M 203.564162 307.584 
L 203.564162 41.472 
" clip-path="url(#p6bf0ac67d5)" style="fill: none; stroke: #b0b0b0; stroke-width: 0.8; stroke-linecap: square"/>
     </g>
     <g id="line2d_6">
      <g>
       <use xlink:href="#m353db543ef" x="203.564162" y="307.584" style="stroke: #000000; stroke-width: 0.8"/>
      </g>
     </g>
     <g id="text_3">
      <!-- 200 -->
      <g transform="translate(194.020412 322.182437) scale(0.1 -0.1)">
       <defs>
        <path id="DejaVuSans-32" d="M 1228 531 
L 3431 531 
L 3431 0 
L 469 0 
L 469 531 
Q 828 903 1448 1529 
Q 2069 2156 2228 2338 
Q 2531 2678 2651 2914 
Q 2772 3150 2772 3378 
Q 2772 3750 2511 3984 
Q 2250 4219 1831 4219 
Q 1534 4219 1204 4116 
Q 875 4013 500 3803 
L 500 4441 
Q 881 4594 1212 4672 
Q 1544 4750 1819 4750 
Q 2544 4750 2975 4387 
Q 3406 4025 3406 3419 
Q 3406 3131 3298 2873 
Q 3191 2616 2906 2266 
Q 2828 2175 2409 1742 
Q 1991 1309 1228 531 
z
" transform="scale(0.015625)"/>
       </defs>
       <use xlink:href="#DejaVuSans-32"/>
       <use xlink:href="#DejaVuSans-30" transform="translate(63.623047 0)"/>
       <use xlink:href="#DejaVuSans-30" transform="translate(127.246094 0)"/>
      </g>
     </g>
    </g>
    <g id="xtick_4">
     <g id="line2d_7">
      <path d="M 268.755838 307.584 
L 268.755838 41.472 
" clip-path="url(#p6bf0ac67d5)" style="fill: none; stroke: #b0b0b0; stroke-width: 0.8; stroke-linecap: square"/>
     </g>
     <g id="line2d_8">
      <g>
       <use xlink:href="#m353db543ef" x="268.755838" y="307.584" style="stroke: #000000; stroke-width: 0.8"/>
      </g>
     </g>
     <g id="text_4">
      <!-- 300 -->
      <g transform="translate(259.212088 322.182437) scale(0.1 -0.1)">
       <defs>
        <path id="DejaVuSans-33" d="M 2597 2516 
Q 3050 2419 3304 2112 
Q 3559 1806 3559 1356 
Q 3559 666 3084 287 
Q 2609 -91 1734 -91 
Q 1441 -91 1130 -33 
Q 819 25 488 141 
L 488 750 
Q 750 597 1062 519 
Q 1375 441 1716 441 
Q 2309 441 2620 675 
Q 2931 909 2931 1356 
Q 2931 1769 2642 2001 
Q 2353 2234 1838 2234 
L 1294 2234 
L 1294 2753 
L 1863 2753 
Q 2328 2753 2575 2939 
Q 2822 3125 2822 3475 
Q 2822 3834 2567 4026 
Q 2313 4219 1838 4219 
Q 1578 4219 1281 4162 
Q 984 4106 628 3988 
L 628 4550 
Q 988 4650 1302 4700 
Q 1616 4750 1894 4750 
Q 2613 4750 3031 4423 
Q 3450 4097 3450 3541 
Q 3450 3153 3228 2886 
Q 3006 2619 2597 2516 
z
" transform="scale(0.015625)"/>
       </defs>
       <use xlink:href="#DejaVuSans-33"/>
       <use xlink:href="#DejaVuSans-30" transform="translate(63.623047 0)"/>
       <use xlink:href="#DejaVuSans-30" transform="translate(127.246094 0)"/>
      </g>
     </g>
    </g>
    <g id="xtick_5">
     <g id="line2d_9">
      <path d="M 333.947514 307.584 
L 333.947514 41.472 
" clip-path="url(#p6bf0ac67d5)" style="fill: none; stroke: #b0b0b0; stroke-width: 0.8; stroke-linecap: square"/>
     </g>
     <g id="line2d_10">
      <g>
       <use xlink:href="#m353db543ef" x="333.947514" y="307.584" style="stroke: #000000; stroke-width: 0.8"/>
      </g>
     </g>
     <g id="text_5">
      <!-- 400 -->
      <g transform="translate(324.403764 322.182437) scale(0.1 -0.1)">
       <defs>
        <path id="DejaVuSans-34" d="M 2419 4116 
L 825 1625 
L 2419 1625 
L 2419 4116 
z
M 2253 4666 
L 3047 4666 
L 3047 1625 
L 3713 1625 
L 3713 1100 
L 3047 1100 
L 3047 0 
L 2419 0 
L 2419 1100 
L 313 1100 
L 313 1709 
L 2253 4666 
z
" transform="scale(0.015625)"/>
       </defs>
       <use xlink:href="#DejaVuSans-34"/>
       <use xlink:href="#DejaVuSans-30" transform="translate(63.623047 0)"/>
       <use xlink:href="#DejaVuSans-30" transform="translate(127.246094 0)"/>
      </g>
     </g>
    </g>
    <g id="xtick_6">
     <g id="line2d_11">
      <path d="M 399.139189 307.584 
L 399.139189 41.472 
" clip-path="url(#p6bf0ac67d5)" style="fill: none; stroke: #b0b0b0; stroke-width: 0.8; stroke-linecap: square"/>
     </g>
     <g id="line2d_12">
      <g>
       <use xlink:href="#m353db543ef" x="399.139189" y="307.584" style="stroke: #000000; stroke-width: 0.8"/>
      </g>
     </g>
     <g id="text_6">
      <!-- 500 -->
      <g transform="translate(389.595439 322.182437) scale(0.1 -0.1)">
       <defs>
        <path id="DejaVuSans-35" d="M 691 4666 
L 3169 4666 
L 3169 4134 
L 1269 4134 
L 1269 2991 
Q 1406 3038 1543 3061 
Q 1681 3084 1819 3084 
Q 2600 3084 3056 2656 
Q 3513 2228 3513 1497 
Q 3513 744 3044 326 
Q 2575 -91 1722 -91 
Q 1428 -91 1123 -41 
Q 819 9 494 109 
L 494 744 
Q 775 591 1075 516 
Q 1375 441 1709 441 
Q 2250 441 2565 725 
Q 2881 1009 2881 1497 
Q 2881 1984 2565 2268 
Q 2250 2553 1709 2553 
Q 1456 2553 1204 2497 
Q 953 2441 691 2322 
L 691 4666 
z
" transform="scale(0.015625)"/>
       </defs>
       <use xlink:href="#DejaVuSans-35"/>
       <use xlink:href="#DejaVuSans-30" transform="translate(63.623047 0)"/>
       <use xlink:href="#DejaVuSans-30" transform="translate(127.246094 0)"/>
      </g>
     </g>
    </g>
    <g id="text_7">
     <!-- k (number of applicants skipped) -->
     <g transform="translate(153.4475 335.860562) scale(0.1 -0.1)">
      <defs>
       <path id="DejaVuSans-6b" d="M 581 4863 
L 1159 4863 
L 1159 1991 
L 2875 3500 
L 3609 3500 
L 1753 1863 
L 3688 0 
L 2938 0 
L 1159 1709 
L 1159 0 
L 581 0 
L 581 4863 
z
" transform="scale(0.015625)"/>
       <path id="DejaVuSans-20" transform="scale(0.015625)"/>
       <path id="DejaVuSans-28" d="M 1984 4856 
Q 1566 4138 1362 3434 
Q 1159 2731 1159 2009 
Q 1159 1288 1364 580 
Q 1569 -128 1984 -844 
L 1484 -844 
Q 1016 -109 783 600 
Q 550 1309 550 2009 
Q 550 2706 781 3412 
Q 1013 4119 1484 4856 
L 1984 4856 
z
" transform="scale(0.015625)"/>
       <path id="DejaVuSans-6e" d="M 3513 2113 
L 3513 0 
L 2938 0 
L 2938 2094 
Q 2938 2591 2744 2837 
Q 2550 3084 2163 3084 
Q 1697 3084 1428 2787 
Q 1159 2491 1159 1978 
L 1159 0 
L 581 0 
L 581 3500 
L 1159 3500 
L 1159 2956 
Q 1366 3272 1645 3428 
Q 1925 3584 2291 3584 
Q 2894 3584 3203 3211 
Q 3513 2838 3513 2113 
z
" transform="scale(0.015625)"/>
       <path id="DejaVuSans-75" d="M 544 1381 
L 544 3500 
L 1119 3500 
L 1119 1403 
Q 1119 906 1312 657 
Q 1506 409 1894 409 
Q 2359 409 2629 706 
Q 2900 1003 2900 1516 
L 2900 3500 
L 3475 3500 
L 3475 0 
L 2900 0 
L 2900 538 
Q 2691 219 2414 64 
Q 2138 -91 1772 -91 
Q 1169 -91 856 284 
Q 544 659 544 1381 
z
M 1991 3584 
L 1991 3584 
z
" transform="scale(0.015625)"/>
       <path id="DejaVuSans-6d" d="M 3328 2828 
Q 3544 3216 3844 3400 
Q 4144 3584 4550 3584 
Q 5097 3584 5394 3201 
Q 5691 2819 5691 2113 
L 5691 0 
L 5113 0 
L 5113 2094 
Q 5113 2597 4934 2840 
Q 4756 3084 4391 3084 
Q 3944 3084 3684 2787 
Q 3425 2491 3425 1978 
L 3425 0 
L 2847 0 
L 2847 2094 
Q 2847 2600 2669 2842 
Q 2491 3084 2119 3084 
Q 1678 3084 1418 2786 
Q 1159 2488 1159 1978 
L 1159 0 
L 581 0 
L 581 3500 
L 1159 3500 
L 1159 2956 
Q 1356 3278 1631 3431 
Q 1906 3584 2284 3584 
Q 2666 3584 2933 3390 
Q 3200 3197 3328 2828 
z
" transform="scale(0.015625)"/>
       <path id="DejaVuSans-62" d="M 3116 1747 
Q 3116 2381 2855 2742 
Q 2594 3103 2138 3103 
Q 1681 3103 1420 2742 
Q 1159 2381 1159 1747 
Q 1159 1113 1420 752 
Q 1681 391 2138 391 
Q 2594 391 2855 752 
Q 3116 1113 3116 1747 
z
M 1159 2969 
Q 1341 3281 1617 3432 
Q 1894 3584 2278 3584 
Q 2916 3584 3314 3078 
Q 3713 2572 3713 1747 
Q 3713 922 3314 415 
Q 2916 -91 2278 -91 
Q 1894 -91 1617 61 
Q 1341 213 1159 525 
L 1159 0 
L 581 0 
L 581 4863 
L 1159 4863 
L 1159 2969 
z
" transform="scale(0.015625)"/>
       <path id="DejaVuSans-65" d="M 3597 1894 
L 3597 1613 
L 953 1613 
Q 991 1019 1311 708 
Q 1631 397 2203 397 
Q 2534 397 2845 478 
Q 3156 559 3463 722 
L 3463 178 
Q 3153 47 2828 -22 
Q 2503 -91 2169 -91 
Q 1331 -91 842 396 
Q 353 884 353 1716 
Q 353 2575 817 3079 
Q 1281 3584 2069 3584 
Q 2775 3584 3186 3129 
Q 3597 2675 3597 1894 
z
M 3022 2063 
Q 3016 2534 2758 2815 
Q 2500 3097 2075 3097 
Q 1594 3097 1305 2825 
Q 1016 2553 972 2059 
L 3022 2063 
z
" transform="scale(0.015625)"/>
       <path id="DejaVuSans-72" d="M 2631 2963 
Q 2534 3019 2420 3045 
Q 2306 3072 2169 3072 
Q 1681 3072 1420 2755 
Q 1159 2438 1159 1844 
L 1159 0 
L 581 0 
L 581 3500 
L 1159 3500 
L 1159 2956 
Q 1341 3275 1631 3429 
Q 1922 3584 2338 3584 
Q 2397 3584 2469 3576 
Q 2541 3569 2628 3553 
L 2631 2963 
z
" transform="scale(0.015625)"/>
       <path id="DejaVuSans-6f" d="M 1959 3097 
Q 1497 3097 1228 2736 
Q 959 2375 959 1747 
Q 959 1119 1226 758 
Q 1494 397 1959 397 
Q 2419 397 2687 759 
Q 2956 1122 2956 1747 
Q 2956 2369 2687 2733 
Q 2419 3097 1959 3097 
z
M 1959 3584 
Q 2709 3584 3137 3096 
Q 3566 2609 3566 1747 
Q 3566 888 3137 398 
Q 2709 -91 1959 -91 
Q 1206 -91 779 398 
Q 353 888 353 1747 
Q 353 2609 779 3096 
Q 1206 3584 1959 3584 
z
" transform="scale(0.015625)"/>
       <path id="DejaVuSans-66" d="M 2375 4863 
L 2375 4384 
L 1825 4384 
Q 1516 4384 1395 4259 
Q 1275 4134 1275 3809 
L 1275 3500 
L 2222 3500 
L 2222 3053 
L 1275 3053 
L 1275 0 
L 697 0 
L 697 3053 
L 147 3053 
L 147 3500 
L 697 3500 
L 697 3744 
Q 697 4328 969 4595 
Q 1241 4863 1831 4863 
L 2375 4863 
z
" transform="scale(0.015625)"/>
       <path id="DejaVuSans-61" d="M 2194 1759 
Q 1497 1759 1228 1600 
Q 959 1441 959 1056 
Q 959 750 1161 570 
Q 1363 391 1709 391 
Q 2188 391 2477 730 
Q 2766 1069 2766 1631 
L 2766 1759 
L 2194 1759 
z
M 3341 1997 
L 3341 0 
L 2766 0 
L 2766 531 
Q 2569 213 2275 61 
Q 1981 -91 1556 -91 
Q 1019 -91 701 211 
Q 384 513 384 1019 
Q 384 1609 779 1909 
Q 1175 2209 1959 2209 
L 2766 2209 
L 2766 2266 
Q 2766 2663 2505 2880 
Q 2244 3097 1772 3097 
Q 1472 3097 1187 3025 
Q 903 2953 641 2809 
L 641 3341 
Q 956 3463 1253 3523 
Q 1550 3584 1831 3584 
Q 2591 3584 2966 3190 
Q 3341 2797 3341 1997 
z
" transform="scale(0.015625)"/>
       <path id="DejaVuSans-70" d="M 1159 525 
L 1159 -1331 
L 581 -1331 
L 581 3500 
L 1159 3500 
L 1159 2969 
Q 1341 3281 1617 3432 
Q 1894 3584 2278 3584 
Q 2916 3584 3314 3078 
Q 3713 2572 3713 1747 
Q 3713 922 3314 415 
Q 2916 -91 2278 -91 
Q 1894 -91 1617 61 
Q 1341 213 1159 525 
z
M 3116 1747 
Q 3116 2381 2855 2742 
Q 2594 3103 2138 3103 
Q 1681 3103 1420 2742 
Q 1159 2381 1159 1747 
Q 1159 1113 1420 752 
Q 1681 391 2138 391 
Q 2594 391 2855 752 
Q 3116 1113 3116 1747 
z
" transform="scale(0.015625)"/>
       <path id="DejaVuSans-6c" d="M 603 4863 
L 1178 4863 
L 1178 0 
L 603 0 
L 603 4863 
z
" transform="scale(0.015625)"/>
       <path id="DejaVuSans-69" d="M 603 3500 
L 1178 3500 
L 1178 0 
L 603 0 
L 603 3500 
z
M 603 4863 
L 1178 4863 
L 1178 4134 
L 603 4134 
L 603 4863 
z
" transform="scale(0.015625)"/>
       <path id="DejaVuSans-63" d="M 3122 3366 
L 3122 2828 
Q 2878 2963 2633 3030 
Q 2388 3097 2138 3097 
Q 1578 3097 1268 2742 
Q 959 2388 959 1747 
Q 959 1106 1268 751 
Q 1578 397 2138 397 
Q 2388 397 2633 464 
Q 2878 531 3122 666 
L 3122 134 
Q 2881 22 2623 -34 
Q 2366 -91 2075 -91 
Q 1284 -91 818 406 
Q 353 903 353 1747 
Q 353 2603 823 3093 
Q 1294 3584 2113 3584 
Q 2378 3584 2631 3529 
Q 2884 3475 3122 3366 
z
" transform="scale(0.015625)"/>
       <path id="DejaVuSans-74" d="M 1172 4494 
L 1172 3500 
L 2356 3500 
L 2356 3053 
L 1172 3053 
L 1172 1153 
Q 1172 725 1289 603 
Q 1406 481 1766 481 
L 2356 481 
L 2356 0 
L 1766 0 
Q 1100 0 847 248 
Q 594 497 594 1153 
L 594 3053 
L 172 3053 
L 172 3500 
L 594 3500 
L 594 4494 
L 1172 4494 
z
" transform="scale(0.015625)"/>
       <path id="DejaVuSans-73" d="M 2834 3397 
L 2834 2853 
Q 2591 2978 2328 3040 
Q 2066 3103 1784 3103 
Q 1356 3103 1142 2972 
Q 928 2841 928 2578 
Q 928 2378 1081 2264 
Q 1234 2150 1697 2047 
L 1894 2003 
Q 2506 1872 2764 1633 
Q 3022 1394 3022 966 
Q 3022 478 2636 193 
Q 2250 -91 1575 -91 
Q 1294 -91 989 -36 
Q 684 19 347 128 
L 347 722 
Q 666 556 975 473 
Q 1284 391 1588 391 
Q 1994 391 2212 530 
Q 2431 669 2431 922 
Q 2431 1156 2273 1281 
Q 2116 1406 1581 1522 
L 1381 1569 
Q 847 1681 609 1914 
Q 372 2147 372 2553 
Q 372 3047 722 3315 
Q 1072 3584 1716 3584 
Q 2034 3584 2315 3537 
Q 2597 3491 2834 3397 
z
" transform="scale(0.015625)"/>
       <path id="DejaVuSans-64" d="M 2906 2969 
L 2906 4863 
L 3481 4863 
L 3481 0 
L 2906 0 
L 2906 525 
Q 2725 213 2448 61 
Q 2172 -91 1784 -91 
Q 1150 -91 751 415 
Q 353 922 353 1747 
Q 353 2572 751 3078 
Q 1150 3584 1784 3584 
Q 2172 3584 2448 3432 
Q 2725 3281 2906 2969 
z
M 947 1747 
Q 947 1113 1208 752 
Q 1469 391 1925 391 
Q 2381 391 2643 752 
Q 2906 1113 2906 1747 
Q 2906 2381 2643 2742 
Q 2381 3103 1925 3103 
Q 1469 3103 1208 2742 
Q 947 2381 947 1747 
z
" transform="scale(0.015625)"/>
       <path id="DejaVuSans-29" d="M 513 4856 
L 1013 4856 
Q 1481 4119 1714 3412 
Q 1947 2706 1947 2009 
Q 1947 1309 1714 600 
Q 1481 -109 1013 -844 
L 513 -844 
Q 928 -128 1133 580 
Q 1338 1288 1338 2009 
Q 1338 2731 1133 3434 
Q 928 4138 513 4856 
z
" transform="scale(0.015625)"/>
      </defs>
      <use xlink:href="#DejaVuSans-6b"/>
      <use xlink:href="#DejaVuSans-20" transform="translate(57.910156 0)"/>
      <use xlink:href="#DejaVuSans-28" transform="translate(89.697266 0)"/>
      <use xlink:href="#DejaVuSans-6e" transform="translate(128.710938 0)"/>
      <use xlink:href="#DejaVuSans-75" transform="translate(192.089844 0)"/>
      <use xlink:href="#DejaVuSans-6d" transform="translate(255.46875 0)"/>
      <use xlink:href="#DejaVuSans-62" transform="translate(352.880859 0)"/>
      <use xlink:href="#DejaVuSans-65" transform="translate(416.357422 0)"/>
      <use xlink:href="#DejaVuSans-72" transform="translate(477.880859 0)"/>
      <use xlink:href="#DejaVuSans-20" transform="translate(518.994141 0)"/>
      <use xlink:href="#DejaVuSans-6f" transform="translate(550.78125 0)"/>
      <use xlink:href="#DejaVuSans-66" transform="translate(611.962891 0)"/>
      <use xlink:href="#DejaVuSans-20" transform="translate(647.167969 0)"/>
      <use xlink:href="#DejaVuSans-61" transform="translate(678.955078 0)"/>
      <use xlink:href="#DejaVuSans-70" transform="translate(740.234375 0)"/>
      <use xlink:href="#DejaVuSans-70" transform="translate(803.710938 0)"/>
      <use xlink:href="#DejaVuSans-6c" transform="translate(867.1875 0)"/>
      <use xlink:href="#DejaVuSans-69" transform="translate(894.970703 0)"/>
      <use xlink:href="#DejaVuSans-63" transform="translate(922.753906 0)"/>
      <use xlink:href="#DejaVuSans-61" transform="translate(977.734375 0)"/>
      <use xlink:href="#DejaVuSans-6e" transform="translate(1039.013672 0)"/>
      <use xlink:href="#DejaVuSans-74" transform="translate(1102.392578 0)"/>
      <use xlink:href="#DejaVuSans-73" transform="translate(1141.601562 0)"/>
      <use xlink:href="#DejaVuSans-20" transform="translate(1193.701172 0)"/>
      <use xlink:href="#DejaVuSans-73" transform="translate(1225.488281 0)"/>
      <use xlink:href="#DejaVuSans-6b" transform="translate(1277.587891 0)"/>
      <use xlink:href="#DejaVuSans-69" transform="translate(1335.498047 0)"/>
      <use xlink:href="#DejaVuSans-70" transform="translate(1363.28125 0)"/>
      <use xlink:href="#DejaVuSans-70" transform="translate(1426.757812 0)"/>
      <use xlink:href="#DejaVuSans-65" transform="translate(1490.234375 0)"/>
      <use xlink:href="#DejaVuSans-64" transform="translate(1551.757812 0)"/>
      <use xlink:href="#DejaVuSans-29" transform="translate(1615.234375 0)"/>
     </g>
    </g>
   </g>
   <g id="matplotlib.axis_2">
    <g id="ytick_1">
     <g id="line2d_13">
      <path d="M 57.6 297.088 
L 414.72 297.088 
" clip-path="url(#p6bf0ac67d5)" style="fill: none; stroke: #b0b0b0; stroke-width: 0.8; stroke-linecap: square"/>
     </g>
     <g id="line2d_14">
      <defs>
       <path id="mb4d760ea92" d="M 0 0 
L -3.5 0 
" style="stroke: #000000; stroke-width: 0.8"/>
      </defs>
      <g>
       <use xlink:href="#mb4d760ea92" x="57.6" y="297.088" style="stroke: #000000; stroke-width: 0.8"/>
      </g>
     </g>
     <g id="text_8">
      <!-- 0.00 -->
      <g transform="translate(28.334375 300.887219) scale(0.1 -0.1)">
       <defs>
        <path id="DejaVuSans-2e" d="M 684 794 
L 1344 794 
L 1344 0 
L 684 0 
L 684 794 
z
" transform="scale(0.015625)"/>
       </defs>
       <use xlink:href="#DejaVuSans-30"/>
       <use xlink:href="#DejaVuSans-2e" transform="translate(63.623047 0)"/>
       <use xlink:href="#DejaVuSans-30" transform="translate(95.410156 0)"/>
       <use xlink:href="#DejaVuSans-30" transform="translate(159.033203 0)"/>
      </g>
     </g>
    </g>
    <g id="ytick_2">
     <g id="line2d_15">
      <path d="M 57.6 265.088 
L 414.72 265.088 
" clip-path="url(#p6bf0ac67d5)" style="fill: none; stroke: #b0b0b0; stroke-width: 0.8; stroke-linecap: square"/>
     </g>
     <g id="line2d_16">
      <g>
       <use xlink:href="#mb4d760ea92" x="57.6" y="265.088" style="stroke: #000000; stroke-width: 0.8"/>
      </g>
     </g>
     <g id="text_9">
      <!-- 0.05 -->
      <g transform="translate(28.334375 268.887219) scale(0.1 -0.1)">
       <use xlink:href="#DejaVuSans-30"/>
       <use xlink:href="#DejaVuSans-2e" transform="translate(63.623047 0)"/>
       <use xlink:href="#DejaVuSans-30" transform="translate(95.410156 0)"/>
       <use xlink:href="#DejaVuSans-35" transform="translate(159.033203 0)"/>
      </g>
     </g>
    </g>
    <g id="ytick_3">
     <g id="line2d_17">
      <path d="M 57.6 233.088 
L 414.72 233.088 
" clip-path="url(#p6bf0ac67d5)" style="fill: none; stroke: #b0b0b0; stroke-width: 0.8; stroke-linecap: square"/>
     </g>
     <g id="line2d_18">
      <g>
       <use xlink:href="#mb4d760ea92" x="57.6" y="233.088" style="stroke: #000000; stroke-width: 0.8"/>
      </g>
     </g>
     <g id="text_10">
      <!-- 0.10 -->
      <g transform="translate(28.334375 236.887219) scale(0.1 -0.1)">
       <use xlink:href="#DejaVuSans-30"/>
       <use xlink:href="#DejaVuSans-2e" transform="translate(63.623047 0)"/>
       <use xlink:href="#DejaVuSans-31" transform="translate(95.410156 0)"/>
       <use xlink:href="#DejaVuSans-30" transform="translate(159.033203 0)"/>
      </g>
     </g>
    </g>
    <g id="ytick_4">
     <g id="line2d_19">
      <path d="M 57.6 201.088 
L 414.72 201.088 
" clip-path="url(#p6bf0ac67d5)" style="fill: none; stroke: #b0b0b0; stroke-width: 0.8; stroke-linecap: square"/>
     </g>
     <g id="line2d_20">
      <g>
       <use xlink:href="#mb4d760ea92" x="57.6" y="201.088" style="stroke: #000000; stroke-width: 0.8"/>
      </g>
     </g>
     <g id="text_11">
      <!-- 0.15 -->
      <g transform="translate(28.334375 204.887219) scale(0.1 -0.1)">
       <use xlink:href="#DejaVuSans-30"/>
       <use xlink:href="#DejaVuSans-2e" transform="translate(63.623047 0)"/>
       <use xlink:href="#DejaVuSans-31" transform="translate(95.410156 0)"/>
       <use xlink:href="#DejaVuSans-35" transform="translate(159.033203 0)"/>
      </g>
     </g>
    </g>
    <g id="ytick_5">
     <g id="line2d_21">
      <path d="M 57.6 169.088 
L 414.72 169.088 
" clip-path="url(#p6bf0ac67d5)" style="fill: none; stroke: #b0b0b0; stroke-width: 0.8; stroke-linecap: square"/>
     </g>
     <g id="line2d_22">
      <g>
       <use xlink:href="#mb4d760ea92" x="57.6" y="169.088" style="stroke: #000000; stroke-width: 0.8"/>
      </g>
     </g>
     <g id="text_12">
      <!-- 0.20 -->
      <g transform="translate(28.334375 172.887219) scale(0.1 -0.1)">
       <use xlink:href="#DejaVuSans-30"/>
       <use xlink:href="#DejaVuSans-2e" transform="translate(63.623047 0)"/>
       <use xlink:href="#DejaVuSans-32" transform="translate(95.410156 0)"/>
       <use xlink:href="#DejaVuSans-30" transform="translate(159.033203 0)"/>
      </g>
     </g>
    </g>
    <g id="ytick_6">
     <g id="line2d_23">
      <path d="M 57.6 137.088 
L 414.72 137.088 
" clip-path="url(#p6bf0ac67d5)" style="fill: none; stroke: #b0b0b0; stroke-width: 0.8; stroke-linecap: square"/>
     </g>
     <g id="line2d_24">
      <g>
       <use xlink:href="#mb4d760ea92" x="57.6" y="137.088" style="stroke: #000000; stroke-width: 0.8"/>
      </g>
     </g>
     <g id="text_13">
      <!-- 0.25 -->
      <g transform="translate(28.334375 140.887219) scale(0.1 -0.1)">
       <use xlink:href="#DejaVuSans-30"/>
       <use xlink:href="#DejaVuSans-2e" transform="translate(63.623047 0)"/>
       <use xlink:href="#DejaVuSans-32" transform="translate(95.410156 0)"/>
       <use xlink:href="#DejaVuSans-35" transform="translate(159.033203 0)"/>
      </g>
     </g>
    </g>
    <g id="ytick_7">
     <g id="line2d_25">
      <path d="M 57.6 105.088 
L 414.72 105.088 
" clip-path="url(#p6bf0ac67d5)" style="fill: none; stroke: #b0b0b0; stroke-width: 0.8; stroke-linecap: square"/>
     </g>
     <g id="line2d_26">
      <g>
       <use xlink:href="#mb4d760ea92" x="57.6" y="105.088" style="stroke: #000000; stroke-width: 0.8"/>
      </g>
     </g>
     <g id="text_14">
      <!-- 0.30 -->
      <g transform="translate(28.334375 108.887219) scale(0.1 -0.1)">
       <use xlink:href="#DejaVuSans-30"/>
       <use xlink:href="#DejaVuSans-2e" transform="translate(63.623047 0)"/>
       <use xlink:href="#DejaVuSans-33" transform="translate(95.410156 0)"/>
       <use xlink:href="#DejaVuSans-30" transform="translate(159.033203 0)"/>
      </g>
     </g>
    </g>
    <g id="ytick_8">
     <g id="line2d_27">
      <path d="M 57.6 73.088 
L 414.72 73.088 
" clip-path="url(#p6bf0ac67d5)" style="fill: none; stroke: #b0b0b0; stroke-width: 0.8; stroke-linecap: square"/>
     </g>
     <g id="line2d_28">
      <g>
       <use xlink:href="#mb4d760ea92" x="57.6" y="73.088" style="stroke: #000000; stroke-width: 0.8"/>
      </g>
     </g>
     <g id="text_15">
      <!-- 0.35 -->
      <g transform="translate(28.334375 76.887219) scale(0.1 -0.1)">
       <use xlink:href="#DejaVuSans-30"/>
       <use xlink:href="#DejaVuSans-2e" transform="translate(63.623047 0)"/>
       <use xlink:href="#DejaVuSans-33" transform="translate(95.410156 0)"/>
       <use xlink:href="#DejaVuSans-35" transform="translate(159.033203 0)"/>
      </g>
     </g>
    </g>
    <g id="text_16">
     <!-- Probability of picking the best applicant -->
     <g transform="translate(22.254687 273.8155) rotate(-90) scale(0.1 -0.1)">
      <defs>
       <path id="DejaVuSans-50" d="M 1259 4147 
L 1259 2394 
L 2053 2394 
Q 2494 2394 2734 2622 
Q 2975 2850 2975 3272 
Q 2975 3691 2734 3919 
Q 2494 4147 2053 4147 
L 1259 4147 
z
M 628 4666 
L 2053 4666 
Q 2838 4666 3239 4311 
Q 3641 3956 3641 3272 
Q 3641 2581 3239 2228 
Q 2838 1875 2053 1875 
L 1259 1875 
L 1259 0 
L 628 0 
L 628 4666 
z
" transform="scale(0.015625)"/>
       <path id="DejaVuSans-79" d="M 2059 -325 
Q 1816 -950 1584 -1140 
Q 1353 -1331 966 -1331 
L 506 -1331 
L 506 -850 
L 844 -850 
Q 1081 -850 1212 -737 
Q 1344 -625 1503 -206 
L 1606 56 
L 191 3500 
L 800 3500 
L 1894 763 
L 2988 3500 
L 3597 3500 
L 2059 -325 
z
" transform="scale(0.015625)"/>
       <path id="DejaVuSans-67" d="M 2906 1791 
Q 2906 2416 2648 2759 
Q 2391 3103 1925 3103 
Q 1463 3103 1205 2759 
Q 947 2416 947 1791 
Q 947 1169 1205 825 
Q 1463 481 1925 481 
Q 2391 481 2648 825 
Q 2906 1169 2906 1791 
z
M 3481 434 
Q 3481 -459 3084 -895 
Q 2688 -1331 1869 -1331 
Q 1566 -1331 1297 -1286 
Q 1028 -1241 775 -1147 
L 775 -588 
Q 1028 -725 1275 -790 
Q 1522 -856 1778 -856 
Q 2344 -856 2625 -561 
Q 2906 -266 2906 331 
L 2906 616 
Q 2728 306 2450 153 
Q 2172 0 1784 0 
Q 1141 0 747 490 
Q 353 981 353 1791 
Q 353 2603 747 3093 
Q 1141 3584 1784 3584 
Q 2172 3584 2450 3431 
Q 2728 3278 2906 2969 
L 2906 3500 
L 3481 3500 
L 3481 434 
z
" transform="scale(0.015625)"/>
       <path id="DejaVuSans-68" d="M 3513 2113 
L 3513 0 
L 2938 0 
L 2938 2094 
Q 2938 2591 2744 2837 
Q 2550 3084 2163 3084 
Q 1697 3084 1428 2787 
Q 1159 2491 1159 1978 
L 1159 0 
L 581 0 
L 581 4863 
L 1159 4863 
L 1159 2956 
Q 1366 3272 1645 3428 
Q 1925 3584 2291 3584 
Q 2894 3584 3203 3211 
Q 3513 2838 3513 2113 
z
" transform="scale(0.015625)"/>
      </defs>
      <use xlink:href="#DejaVuSans-50"/>
      <use xlink:href="#DejaVuSans-72" transform="translate(58.552734 0)"/>
      <use xlink:href="#DejaVuSans-6f" transform="translate(97.416016 0)"/>
      <use xlink:href="#DejaVuSans-62" transform="translate(158.597656 0)"/>
      <use xlink:href="#DejaVuSans-61" transform="translate(222.074219 0)"/>
      <use xlink:href="#DejaVuSans-62" transform="translate(283.353516 0)"/>
      <use xlink:href="#DejaVuSans-69" transform="translate(346.830078 0)"/>
      <use xlink:href="#DejaVuSans-6c" transform="translate(374.613281 0)"/>
      <use xlink:href="#DejaVuSans-69" transform="translate(402.396484 0)"/>
      <use xlink:href="#DejaVuSans-74" transform="translate(430.179688 0)"/>
      <use xlink:href="#DejaVuSans-79" transform="translate(469.388672 0)"/>
      <use xlink:href="#DejaVuSans-20" transform="translate(528.568359 0)"/>
      <use xlink:href="#DejaVuSans-6f" transform="translate(560.355469 0)"/>
      <use xlink:href="#DejaVuSans-66" transform="translate(621.537109 0)"/>
      <use xlink:href="#DejaVuSans-20" transform="translate(656.742188 0)"/>
      <use xlink:href="#DejaVuSans-70" transform="translate(688.529297 0)"/>
      <use xlink:href="#DejaVuSans-69" transform="translate(752.005859 0)"/>
      <use xlink:href="#DejaVuSans-63" transform="translate(779.789062 0)"/>
      <use xlink:href="#DejaVuSans-6b" transform="translate(834.769531 0)"/>
      <use xlink:href="#DejaVuSans-69" transform="translate(892.679688 0)"/>
      <use xlink:href="#DejaVuSans-6e" transform="translate(920.462891 0)"/>
      <use xlink:href="#DejaVuSans-67" transform="translate(983.841797 0)"/>
      <use xlink:href="#DejaVuSans-20" transform="translate(1047.318359 0)"/>
      <use xlink:href="#DejaVuSans-74" transform="translate(1079.105469 0)"/>
      <use xlink:href="#DejaVuSans-68" transform="translate(1118.314453 0)"/>
      <use xlink:href="#DejaVuSans-65" transform="translate(1181.693359 0)"/>
      <use xlink:href="#DejaVuSans-20" transform="translate(1243.216797 0)"/>
      <use xlink:href="#DejaVuSans-62" transform="translate(1275.003906 0)"/>
      <use xlink:href="#DejaVuSans-65" transform="translate(1338.480469 0)"/>
      <use xlink:href="#DejaVuSans-73" transform="translate(1400.003906 0)"/>
      <use xlink:href="#DejaVuSans-74" transform="translate(1452.103516 0)"/>
      <use xlink:href="#DejaVuSans-20" transform="translate(1491.3125 0)"/>
      <use xlink:href="#DejaVuSans-61" transform="translate(1523.099609 0)"/>
      <use xlink:href="#DejaVuSans-70" transform="translate(1584.378906 0)"/>
      <use xlink:href="#DejaVuSans-70" transform="translate(1647.855469 0)"/>
      <use xlink:href="#DejaVuSans-6c" transform="translate(1711.332031 0)"/>
      <use xlink:href="#DejaVuSans-69" transform="translate(1739.115234 0)"/>
      <use xlink:href="#DejaVuSans-63" transform="translate(1766.898438 0)"/>
      <use xlink:href="#DejaVuSans-61" transform="translate(1821.878906 0)"/>
      <use xlink:href="#DejaVuSans-6e" transform="translate(1883.158203 0)"/>
      <use xlink:href="#DejaVuSans-74" transform="translate(1946.537109 0)"/>
     </g>
    </g>
   </g>
   <g id="line2d_29">
    <path d="M 73.832727 287.68 
L 76.440394 267.584 
L 77.092311 263.296 
L 77.744228 261.824 
L 78.396145 253.376 
L 79.048061 249.6 
L 79.699978 244.608 
L 80.351895 246.72 
L 81.003812 239.744 
L 81.655728 235.968 
L 82.307645 233.408 
L 82.959562 232.32 
L 83.611479 226.304 
L 84.263395 221.504 
L 84.915312 219.328 
L 85.567229 218.24 
L 87.522979 207.04 
L 88.826813 202.368 
L 89.478729 201.408 
L 90.130646 194.944 
L 90.782563 195.84 
L 91.43448 195.648 
L 92.738313 192.576 
L 93.39023 186.112 
L 94.042147 183.616 
L 94.694064 184.256 
L 95.34598 177.6 
L 95.997897 179.52 
L 96.649814 173.568 
L 97.301731 169.472 
L 97.953647 171.456 
L 98.605564 171.776 
L 99.257481 164.8 
L 99.909398 169.792 
L 100.561314 161.152 
L 101.213231 160.96 
L 101.865148 160.256 
L 102.517065 153.984 
L 103.168981 150.784 
L 103.820898 155.84 
L 104.472815 155.136 
L 105.124732 151.232 
L 105.776648 153.792 
L 106.428565 147.52 
L 107.080482 145.728 
L 107.732399 142.08 
L 108.384315 142.912 
L 109.036232 144.384 
L 109.688149 136 
L 110.340066 141.184 
L 110.991982 138.112 
L 111.643899 136.192 
L 112.295816 135.04 
L 112.947733 129.408 
L 113.59965 137.28 
L 114.251566 126.272 
L 114.903483 128.64 
L 115.5554 125.888 
L 116.207317 126.656 
L 116.859233 125.568 
L 117.51115 121.536 
L 118.163067 119.104 
L 118.814984 119.808 
L 119.4669 119.552 
L 120.118817 122.624 
L 120.770734 118.144 
L 121.422651 115.008 
L 122.074567 118.528 
L 122.726484 109.44 
L 123.378401 112.384 
L 124.030318 116.224 
L 124.682234 111.936 
L 125.334151 109.76 
L 125.986068 100.8 
L 126.637985 105.536 
L 127.289901 105.856 
L 127.941818 99.52 
L 128.593735 101.76 
L 129.245652 102.208 
L 129.897568 95.616 
L 130.549485 96.384 
L 131.201402 101.504 
L 131.853319 99.968 
L 132.505235 102.464 
L 133.809069 96.64 
L 134.460986 96.512 
L 135.112903 93.504 
L 135.764819 94.976 
L 136.416736 97.792 
L 137.068653 90.56 
L 137.72057 86.208 
L 138.372486 90.24 
L 139.024403 92.544 
L 139.67632 85.12 
L 140.328237 85.312 
L 140.980153 83.712 
L 141.63207 90.56 
L 142.283987 87.04 
L 142.935904 86.912 
L 143.58782 84.608 
L 144.239737 81.472 
L 144.891654 83.392 
L 145.543571 81.344 
L 146.195487 78.784 
L 146.847404 78.784 
L 147.499321 79.168 
L 148.151238 79.872 
L 148.803154 74.752 
L 149.455071 78.08 
L 150.106988 71.744 
L 151.410821 80.192 
L 152.062738 78.976 
L 152.714655 75.712 
L 153.366572 71.744 
L 154.018488 71.36 
L 154.670405 75.776 
L 155.322322 76.352 
L 155.974239 72.448 
L 156.626156 71.36 
L 157.278072 69.504 
L 157.929989 75.2 
L 158.581906 68.288 
L 159.233823 70.08 
L 159.885739 74.752 
L 160.537656 69.376 
L 161.189573 71.104 
L 161.84149 72.512 
L 162.493406 67.264 
L 163.145323 74.688 
L 163.79724 66.24 
L 164.449157 71.424 
L 165.101073 68.416 
L 165.75299 68.736 
L 166.404907 67.008 
L 167.056824 68.288 
L 167.70874 67.072 
L 168.360657 64.192 
L 169.012574 62.016 
L 169.664491 64.64 
L 170.316407 65.024 
L 170.968324 64.96 
L 171.620241 64.32 
L 172.272158 64 
L 172.924074 63.936 
L 173.575991 60.224 
L 174.227908 64.384 
L 174.879825 65.28 
L 175.531742 66.56 
L 176.183658 67.52 
L 176.835575 63.168 
L 177.487492 67.008 
L 178.139409 59.456 
L 178.791325 67.456 
L 179.443242 62.784 
L 180.095159 66.24 
L 180.747076 61.504 
L 181.398992 63.296 
L 182.050909 63.232 
L 182.702826 63.872 
L 183.354743 57.664 
L 184.006659 57.024 
L 184.658576 62.528 
L 185.310493 53.568 
L 185.96241 62.272 
L 186.614326 62.784 
L 187.266243 61.632 
L 187.91816 64.896 
L 188.570077 62.208 
L 189.221993 60.928 
L 189.87391 60.864 
L 190.525827 57.664 
L 191.177744 59.776 
L 191.82966 59.392 
L 192.481577 57.92 
L 193.133494 59.456 
L 193.785411 58.304 
L 194.437327 62.336 
L 195.089244 62.016 
L 195.741161 56.704 
L 196.393078 65.216 
L 197.696911 62.144 
L 198.348828 59.52 
L 199.000745 64.576 
L 199.652662 60.288 
L 200.304578 61.312 
L 200.956495 64 
L 201.608412 59.52 
L 202.260329 65.536 
L 202.912245 64.256 
L 203.564162 58.752 
L 204.216079 62.976 
L 204.867996 65.408 
L 205.519912 65.472 
L 206.171829 59.456 
L 206.823746 67.072 
L 207.475663 61.44 
L 208.127579 66.048 
L 208.779496 60.224 
L 209.431413 70.4 
L 210.08333 62.528 
L 211.387163 60.48 
L 212.03908 64.96 
L 212.690997 61.696 
L 213.342913 61.504 
L 213.99483 62.976 
L 214.646747 69.312 
L 215.298664 63.68 
L 215.950581 67.52 
L 216.602497 57.664 
L 217.254414 65.472 
L 217.906331 65.152 
L 218.558248 61.184 
L 219.210164 67.072 
L 219.862081 65.664 
L 221.165915 69.184 
L 221.817831 69.632 
L 222.469748 69.248 
L 223.121665 66.24 
L 223.773582 66.752 
L 224.425498 67.072 
L 225.077415 69.12 
L 225.729332 68.736 
L 226.381249 75.584 
L 227.033165 67.456 
L 227.685082 72.32 
L 228.336999 75.52 
L 228.988916 71.808 
L 229.640832 63.552 
L 230.292749 76.48 
L 231.596583 66.432 
L 232.248499 66.432 
L 232.900416 74.624 
L 233.552333 73.536 
L 234.20425 77.184 
L 234.856166 73.536 
L 235.508083 73.024 
L 236.16 78.272 
L 236.811917 77.696 
L 237.463834 70.528 
L 238.11575 75.712 
L 238.767667 76.608 
L 239.419584 82.048 
L 240.071501 76.608 
L 240.723417 73.28 
L 241.375334 73.088 
L 242.027251 80.64 
L 242.679168 77.184 
L 243.331084 80.896 
L 243.983001 77.696 
L 244.634918 77.632 
L 245.286835 83.392 
L 245.938751 75.776 
L 246.590668 83.904 
L 247.242585 80.256 
L 247.894502 85.504 
L 248.546418 81.792 
L 249.850252 79.424 
L 250.502169 81.472 
L 251.154085 85.568 
L 251.806002 86.016 
L 252.457919 88.96 
L 253.761752 84.544 
L 254.413669 93.184 
L 255.065586 90.816 
L 255.717503 86.976 
L 256.369419 88.896 
L 257.021336 88.64 
L 257.673253 91.328 
L 258.32517 95.808 
L 258.977087 88.512 
L 259.629003 94.656 
L 260.28092 96.128 
L 260.932837 99.52 
L 261.584754 91.136 
L 262.23667 87.488 
L 262.888587 95.36 
L 263.540504 92.864 
L 264.192421 100.544 
L 264.844337 99.776 
L 265.496254 99.648 
L 266.148171 96.768 
L 266.800088 100.864 
L 267.452004 101.184 
L 268.103921 101.056 
L 268.755838 100.672 
L 269.407755 97.152 
L 270.059671 103.04 
L 270.711588 98.624 
L 271.363505 104.704 
L 272.015422 108.16 
L 272.667338 105.984 
L 273.319255 106.112 
L 273.971172 104.896 
L 274.623089 106.688 
L 275.275005 103.488 
L 275.926922 104.128 
L 276.578839 105.088 
L 277.230756 102.208 
L 277.882673 108.288 
L 278.534589 107.776 
L 279.186506 114.56 
L 279.838423 111.808 
L 280.49034 111.744 
L 281.142256 119.744 
L 281.794173 112.896 
L 282.44609 114.112 
L 283.098007 114.176 
L 283.749923 119.488 
L 284.40184 112.96 
L 285.053757 117.504 
L 285.705674 112 
L 286.35759 117.248 
L 287.009507 119.104 
L 287.661424 117.76 
L 288.313341 116.928 
L 288.965257 122.496 
L 289.617174 122.496 
L 290.269091 123.328 
L 290.921008 126.592 
L 291.572924 124.672 
L 292.224841 130.56 
L 292.876758 125.824 
L 293.528675 126.976 
L 294.180591 133.376 
L 294.832508 128.832 
L 295.484425 128.96 
L 296.136342 127.168 
L 296.788258 133.504 
L 297.440175 131.712 
L 298.092092 133.44 
L 298.744009 133.888 
L 299.395926 136 
L 300.047842 133.312 
L 300.699759 136.128 
L 301.351676 139.52 
L 302.003593 137.216 
L 302.655509 135.808 
L 303.307426 135.808 
L 303.959343 139.84 
L 305.263176 145.088 
L 305.915093 144.448 
L 306.56701 145.216 
L 307.218927 145.152 
L 307.870843 147.84 
L 308.52276 144.64 
L 309.174677 148.544 
L 309.826594 143.744 
L 310.47851 152.448 
L 311.130427 149.888 
L 311.782344 153.024 
L 312.434261 152.96 
L 313.086177 154.944 
L 313.738094 155.328 
L 314.390011 154.56 
L 315.041928 154.048 
L 315.693844 153.088 
L 316.345761 160.256 
L 316.997678 158.656 
L 317.649595 156.224 
L 318.301512 161.728 
L 318.953428 156.352 
L 319.605345 161.856 
L 320.257262 164.992 
L 320.909179 167.168 
L 321.561095 163.776 
L 322.213012 167.424 
L 322.864929 159.168 
L 323.516846 167.104 
L 324.168762 169.152 
L 324.820679 167.616 
L 325.472596 173.504 
L 326.124513 171.328 
L 326.776429 172.288 
L 327.428346 172.544 
L 328.080263 171.008 
L 328.73218 176 
L 329.384096 173.44 
L 330.036013 172.928 
L 330.68793 172.928 
L 331.339847 177.984 
L 331.991763 180.544 
L 332.64368 178.048 
L 333.295597 183.104 
L 333.947514 180.8 
L 334.59943 186.112 
L 335.251347 184.704 
L 335.903264 184.64 
L 336.555181 186.048 
L 337.207097 188.416 
L 337.859014 186.688 
L 338.510931 194.944 
L 339.162848 192.96 
L 339.814765 192.96 
L 341.118598 196.672 
L 341.770515 194.688 
L 342.422432 199.68 
L 343.074348 194.368 
L 343.726265 196.864 
L 344.378182 195.52 
L 345.030099 199.872 
L 345.682015 202.432 
L 346.333932 205.504 
L 346.985849 204.16 
L 347.637766 202.112 
L 348.289682 208.256 
L 348.941599 207.168 
L 349.593516 205.376 
L 350.245433 208.768 
L 350.897349 208.64 
L 351.549266 212.608 
L 352.201183 214.912 
L 352.8531 211.84 
L 353.505016 215.808 
L 354.156933 215.68 
L 354.80885 217.472 
L 355.460767 217.344 
L 356.112683 218.368 
L 356.7646 218.816 
L 357.416517 216.448 
L 358.068434 219.712 
L 358.72035 225.472 
L 359.372267 225.728 
L 360.024184 225.472 
L 361.328018 227.52 
L 361.979934 227.072 
L 362.631851 229.824 
L 363.283768 231.424 
L 363.935685 231.552 
L 364.587601 234.752 
L 365.239518 232.192 
L 365.891435 236.928 
L 366.543352 236.416 
L 367.195268 240.96 
L 367.847185 239.168 
L 368.499102 238.208 
L 369.151019 242.304 
L 369.802935 242.496 
L 370.454852 242.88 
L 371.106769 242.752 
L 371.758686 245.376 
L 372.410602 249.024 
L 373.062519 248.576 
L 373.714436 251.328 
L 374.366353 248.64 
L 375.018269 251.136 
L 375.670186 252.032 
L 376.322103 254.016 
L 376.97402 253.248 
L 377.625936 258.752 
L 378.277853 257.792 
L 378.92977 259.456 
L 379.581687 262.208 
L 380.233604 262.144 
L 380.88552 261.504 
L 381.537437 265.536 
L 382.189354 262.784 
L 382.841271 264.896 
L 383.493187 265.28 
L 384.145104 267.712 
L 384.797021 270.592 
L 385.448938 272.896 
L 386.100854 272.896 
L 386.752771 272.448 
L 387.404688 276.032 
L 388.056605 275.84 
L 388.708521 277.248 
L 389.360438 278.272 
L 390.012355 280.768 
L 391.316188 281.536 
L 392.620022 283.904 
L 393.271939 285.76 
L 393.923855 286.72 
L 394.575772 288.32 
L 395.227689 289.024 
L 395.879606 290.496 
L 396.531522 292.416 
L 397.183439 293.12 
L 398.487273 295.488 
L 398.487273 295.488 
" clip-path="url(#p6bf0ac67d5)" style="fill: none; stroke: #1f77b4; stroke-width: 1.5; stroke-linecap: square"/>
   </g>
   <g id="patch_3">
    <path d="M 57.6 307.584 
L 57.6 41.472 
" style="fill: none; stroke: #000000; stroke-width: 0.8; stroke-linejoin: miter; stroke-linecap: square"/>
   </g>
   <g id="patch_4">
    <path d="M 414.72 307.584 
L 414.72 41.472 
" style="fill: none; stroke: #000000; stroke-width: 0.8; stroke-linejoin: miter; stroke-linecap: square"/>
   </g>
   <g id="patch_5">
    <path d="M 57.6 307.584 
L 414.72 307.584 
" style="fill: none; stroke: #000000; stroke-width: 0.8; stroke-linejoin: miter; stroke-linecap: square"/>
   </g>
   <g id="patch_6">
    <path d="M 57.6 41.472 
L 414.72 41.472 
" style="fill: none; stroke: #000000; stroke-width: 0.8; stroke-linejoin: miter; stroke-linecap: square"/>
   </g>
   <g id="text_17">
    <!-- Secretary problem – success rate vs. first k eliminations -->
    <g transform="translate(68.1375 35.472) scale(0.12 -0.12)">
     <defs>
      <path id="DejaVuSans-53" d="M 3425 4513 
L 3425 3897 
Q 3066 4069 2747 4153 
Q 2428 4238 2131 4238 
Q 1616 4238 1336 4038 
Q 1056 3838 1056 3469 
Q 1056 3159 1242 3001 
Q 1428 2844 1947 2747 
L 2328 2669 
Q 3034 2534 3370 2195 
Q 3706 1856 3706 1288 
Q 3706 609 3251 259 
Q 2797 -91 1919 -91 
Q 1588 -91 1214 -16 
Q 841 59 441 206 
L 441 856 
Q 825 641 1194 531 
Q 1563 422 1919 422 
Q 2459 422 2753 634 
Q 3047 847 3047 1241 
Q 3047 1584 2836 1778 
Q 2625 1972 2144 2069 
L 1759 2144 
Q 1053 2284 737 2584 
Q 422 2884 422 3419 
Q 422 4038 858 4394 
Q 1294 4750 2059 4750 
Q 2388 4750 2728 4690 
Q 3069 4631 3425 4513 
z
" transform="scale(0.015625)"/>
      <path id="DejaVuSans-2013" d="M 313 1978 
L 2888 1978 
L 2888 1528 
L 313 1528 
L 313 1978 
z
" transform="scale(0.015625)"/>
      <path id="DejaVuSans-76" d="M 191 3500 
L 800 3500 
L 1894 563 
L 2988 3500 
L 3597 3500 
L 2284 0 
L 1503 0 
L 191 3500 
z
" transform="scale(0.015625)"/>
     </defs>
     <use xlink:href="#DejaVuSans-53"/>
     <use xlink:href="#DejaVuSans-65" transform="translate(63.476562 0)"/>
     <use xlink:href="#DejaVuSans-63" transform="translate(125 0)"/>
     <use xlink:href="#DejaVuSans-72" transform="translate(179.980469 0)"/>
     <use xlink:href="#DejaVuSans-65" transform="translate(218.84375 0)"/>
     <use xlink:href="#DejaVuSans-74" transform="translate(280.367188 0)"/>
     <use xlink:href="#DejaVuSans-61" transform="translate(319.576172 0)"/>
     <use xlink:href="#DejaVuSans-72" transform="translate(380.855469 0)"/>
     <use xlink:href="#DejaVuSans-79" transform="translate(421.96875 0)"/>
     <use xlink:href="#DejaVuSans-20" transform="translate(481.148438 0)"/>
     <use xlink:href="#DejaVuSans-70" transform="translate(512.935547 0)"/>
     <use xlink:href="#DejaVuSans-72" transform="translate(576.412109 0)"/>
     <use xlink:href="#DejaVuSans-6f" transform="translate(615.275391 0)"/>
     <use xlink:href="#DejaVuSans-62" transform="translate(676.457031 0)"/>
     <use xlink:href="#DejaVuSans-6c" transform="translate(739.933594 0)"/>
     <use xlink:href="#DejaVuSans-65" transform="translate(767.716797 0)"/>
     <use xlink:href="#DejaVuSans-6d" transform="translate(829.240234 0)"/>
     <use xlink:href="#DejaVuSans-20" transform="translate(926.652344 0)"/>
     <use xlink:href="#DejaVuSans-2013" transform="translate(958.439453 0)"/>
     <use xlink:href="#DejaVuSans-20" transform="translate(1008.439453 0)"/>
     <use xlink:href="#DejaVuSans-73" transform="translate(1040.226562 0)"/>
     <use xlink:href="#DejaVuSans-75" transform="translate(1092.326172 0)"/>
     <use xlink:href="#DejaVuSans-63" transform="translate(1155.705078 0)"/>
     <use xlink:href="#DejaVuSans-63" transform="translate(1210.685547 0)"/>
     <use xlink:href="#DejaVuSans-65" transform="translate(1265.666016 0)"/>
     <use xlink:href="#DejaVuSans-73" transform="translate(1327.189453 0)"/>
     <use xlink:href="#DejaVuSans-73" transform="translate(1379.289062 0)"/>
     <use xlink:href="#DejaVuSans-20" transform="translate(1431.388672 0)"/>
     <use xlink:href="#DejaVuSans-72" transform="translate(1463.175781 0)"/>
     <use xlink:href="#DejaVuSans-61" transform="translate(1504.289062 0)"/>
     <use xlink:href="#DejaVuSans-74" transform="translate(1565.568359 0)"/>
     <use xlink:href="#DejaVuSans-65" transform="translate(1604.777344 0)"/>
     <use xlink:href="#DejaVuSans-20" transform="translate(1666.300781 0)"/>
     <use xlink:href="#DejaVuSans-76" transform="translate(1698.087891 0)"/>
     <use xlink:href="#DejaVuSans-73" transform="translate(1757.267578 0)"/>
     <use xlink:href="#DejaVuSans-2e" transform="translate(1809.367188 0)"/>
     <use xlink:href="#DejaVuSans-20" transform="translate(1841.154297 0)"/>
     <use xlink:href="#DejaVuSans-66" transform="translate(1872.941406 0)"/>
     <use xlink:href="#DejaVuSans-69" transform="translate(1908.146484 0)"/>
     <use xlink:href="#DejaVuSans-72" transform="translate(1935.929688 0)"/>
     <use xlink:href="#DejaVuSans-73" transform="translate(1977.042969 0)"/>
     <use xlink:href="#DejaVuSans-74" transform="translate(2029.142578 0)"/>
     <use xlink:href="#DejaVuSans-20" transform="translate(2068.351562 0)"/>
     <use xlink:href="#DejaVuSans-6b" transform="translate(2100.138672 0)"/>
     <use xlink:href="#DejaVuSans-20" transform="translate(2158.048828 0)"/>
     <use xlink:href="#DejaVuSans-65" transform="translate(2189.835938 0)"/>
     <use xlink:href="#DejaVuSans-6c" transform="translate(2251.359375 0)"/>
     <use xlink:href="#DejaVuSans-69" transform="translate(2279.142578 0)"/>
     <use xlink:href="#DejaVuSans-6d" transform="translate(2306.925781 0)"/>
     <use xlink:href="#DejaVuSans-69" transform="translate(2404.337891 0)"/>
     <use xlink:href="#DejaVuSans-6e" transform="translate(2432.121094 0)"/>
     <use xlink:href="#DejaVuSans-61" transform="translate(2495.5 0)"/>
     <use xlink:href="#DejaVuSans-74" transform="translate(2556.779297 0)"/>
     <use xlink:href="#DejaVuSans-69" transform="translate(2595.988281 0)"/>
     <use xlink:href="#DejaVuSans-6f" transform="translate(2623.771484 0)"/>
     <use xlink:href="#DejaVuSans-6e" transform="translate(2684.953125 0)"/>
     <use xlink:href="#DejaVuSans-73" transform="translate(2748.332031 0)"/>
    </g>
   </g>
  </g>
 </g>
 <defs>
  <clipPath id="p6bf0ac67d5">
   <rect x="57.6" y="41.472" width="357.12" height="266.112"/>
  </clipPath>
 </defs>
</svg>
