<?xml version="1.0" encoding="utf-8" standalone="no"?>
<!DOCTYPE svg PUBLIC "-//W3C//DTD SVG 1.1//EN"
  "http://www.w3.org/Graphics/SVG/1.1/DTD/svg11.dtd">
<svg xmlns:xlink="http://www.w3.org/1999/xlink" width="720pt" height="432pt" viewBox="0 0 720 432" xmlns="http://www.w3.org/2000/svg" version="1.1">
 <metadata>
  <rdf:RDF xmlns:dc="http://purl.org/dc/elements/1.1/" xmlns:cc="http://creativecommons.org/ns#" xmlns:rdf="http://www.w3.org/1999/02/22-rdf-syntax-ns#">
   <cc:Work>
    <dc:type rdf:resource="http://purl.org/dc/dcmitype/StillImage"/>
    <dc:date>2025-11-11T23:16:53.929729</dc:date>
    <dc:format>image/svg+xml</dc:format>
    <dc:creator>
     <cc:Agent>
      <dc:title>Matplotlib v3.10.7, https://matplotlib.org/</dc:title>
     </cc:Agent>
    </dc:creator>
   </cc:Work>
  </rdf:RDF>
 </metadata>
 <defs>
  <style type="text/css">*{stroke-linejoin: round; stroke-linecap: butt}</style>
 </defs>
 <g id="figure_1">
  <g id="patch_1">
   <path d="M 0 432 
L 720 432 
L 720 0 
L 0 0 
z
" style="fill: #ffffff"/>
  </g>
  <g id="axes_1">
   <g id="patch_2">
    <path d="M 90 149.675294 
L 648 149.675294 
L 648 51.84 
L 90 51.84 
z
" style="fill: #ffffff"/>
   </g>
   <g id="patch_3">
    <path d="M 115.363636 149.675294 
L 340.818182 149.675294 
L 340.818182 88.586085 
L 115.363636 88.586085 
z
" clip-path="url(#p3f33cf696c)" style="fill: #1f77b4"/>
   </g>
   <g id="patch_4">
    <path d="M 397.181818 149.675294 
L 622.636364 149.675294 
L 622.636364 56.498824 
L 397.181818 56.498824 
z
" clip-path="url(#p3f33cf696c)" style="fill: #1f77b4"/>
   </g>
   <g id="patch_5">
    <path d="M 115.363636 149.675294 
L 340.818182 149.675294 
L 340.818182 87.969022 
L 115.363636 87.969022 
L 115.363636 149.675294 
z
" clip-path="url(#p3f33cf696c)" style="fill: none; stroke: #ff0000; stroke-width: 1.1; stroke-linejoin: miter"/>
   </g>
   <g id="patch_6">
    <path d="M 397.181818 149.675294 
L 622.636364 149.675294 
L 622.636364 57.115886 
L 397.181818 57.115886 
L 397.181818 149.675294 
z
" clip-path="url(#p3f33cf696c)" style="fill: none; stroke: #ff0000; stroke-width: 1.1; stroke-linejoin: miter"/>
   </g>
   <g id="matplotlib.axis_1">
    <g id="xtick_1">
     <g id="line2d_1">
      <defs>
       <path id="m5a3cb3665f" d="M 0 0 
L 0 3.5 
" style="stroke: #000000; stroke-width: 0.8"/>
      </defs>
      <g>
       <use xlink:href="#m5a3cb3665f" x="228.090909" y="149.675294" style="stroke: #000000; stroke-width: 0.8"/>
      </g>
     </g>
     <g id="text_1">
      <!-- 0 -->
      <g transform="translate(224.909659 164.273732) scale(0.1 -0.1)">
       <defs>
        <path id="DejaVuSans-30" d="M 2034 4250 
Q 1547 4250 1301 3770 
Q 1056 3291 1056 2328 
Q 1056 1369 1301 889 
Q 1547 409 2034 409 
Q 2525 409 2770 889 
Q 3016 1369 3016 2328 
Q 3016 3291 2770 3770 
Q 2525 4250 2034 4250 
z
M 2034 4750 
Q 2819 4750 3233 4129 
Q 3647 3509 3647 2328 
Q 3647 1150 3233 529 
Q 2819 -91 2034 -91 
Q 1250 -91 836 529 
Q 422 1150 422 2328 
Q 422 3509 836 4129 
Q 1250 4750 2034 4750 
z
" transform="scale(0.015625)"/>
       </defs>
       <use xlink:href="#DejaVuSans-30"/>
      </g>
     </g>
    </g>
    <g id="xtick_2">
     <g id="line2d_2">
      <g>
       <use xlink:href="#m5a3cb3665f" x="509.909091" y="149.675294" style="stroke: #000000; stroke-width: 0.8"/>
      </g>
     </g>
     <g id="text_2">
      <!-- 1 -->
      <g transform="translate(506.727841 164.273732) scale(0.1 -0.1)">
       <defs>
        <path id="DejaVuSans-31" d="M 794 531 
L 1825 531 
L 1825 4091 
L 703 3866 
L 703 4441 
L 1819 4666 
L 2450 4666 
L 2450 531 
L 3481 531 
L 3481 0 
L 794 0 
L 794 531 
z
" transform="scale(0.015625)"/>
       </defs>
       <use xlink:href="#DejaVuSans-31"/>
      </g>
     </g>
    </g>
   </g>
   <g id="matplotlib.axis_2">
    <g id="ytick_1">
     <g id="line2d_3">
      <defs>
       <path id="m31a9f25bfe" d="M 0 0 
L -3.5 0 
" style="stroke: #000000; stroke-width: 0.8"/>
      </defs>
      <g>
       <use xlink:href="#m31a9f25bfe" x="90" y="149.675294" style="stroke: #000000; stroke-width: 0.8"/>
      </g>
     </g>
     <g id="text_3">
      <!-- 0.0 -->
      <g transform="translate(67.096875 153.474513) scale(0.1 -0.1)">
       <defs>
        <path id="DejaVuSans-2e" d="M 684 794 
L 1344 794 
L 1344 0 
L 684 0 
L 684 794 
z
" transform="scale(0.015625)"/>
       </defs>
       <use xlink:href="#DejaVuSans-30"/>
       <use xlink:href="#DejaVuSans-2e" transform="translate(63.623047 0)"/>
       <use xlink:href="#DejaVuSans-30" transform="translate(95.410156 0)"/>
      </g>
     </g>
    </g>
    <g id="ytick_2">
     <g id="line2d_4">
      <g>
       <use xlink:href="#m31a9f25bfe" x="90" y="118.822158" style="stroke: #000000; stroke-width: 0.8"/>
      </g>
     </g>
     <g id="text_4">
      <!-- 0.2 -->
      <g transform="translate(67.096875 122.621377) scale(0.1 -0.1)">
       <defs>
        <path id="DejaVuSans-32" d="M 1228 531 
L 3431 531 
L 3431 0 
L 469 0 
L 469 531 
Q 828 903 1448 1529 
Q 2069 2156 2228 2338 
Q 2531 2678 2651 2914 
Q 2772 3150 2772 3378 
Q 2772 3750 2511 3984 
Q 2250 4219 1831 4219 
Q 1534 4219 1204 4116 
Q 875 4013 500 3803 
L 500 4441 
Q 881 4594 1212 4672 
Q 1544 4750 1819 4750 
Q 2544 4750 2975 4387 
Q 3406 4025 3406 3419 
Q 3406 3131 3298 2873 
Q 3191 2616 2906 2266 
Q 2828 2175 2409 1742 
Q 1991 1309 1228 531 
z
" transform="scale(0.015625)"/>
       </defs>
       <use xlink:href="#DejaVuSans-30"/>
       <use xlink:href="#DejaVuSans-2e" transform="translate(63.623047 0)"/>
       <use xlink:href="#DejaVuSans-32" transform="translate(95.410156 0)"/>
      </g>
     </g>
    </g>
    <g id="ytick_3">
     <g id="line2d_5">
      <g>
       <use xlink:href="#m31a9f25bfe" x="90" y="87.969022" style="stroke: #000000; stroke-width: 0.8"/>
      </g>
     </g>
     <g id="text_5">
      <!-- 0.4 -->
      <g transform="translate(67.096875 91.768241) scale(0.1 -0.1)">
       <defs>
        <path id="DejaVuSans-34" d="M 2419 4116 
L 825 1625 
L 2419 1625 
L 2419 4116 
z
M 2253 4666 
L 3047 4666 
L 3047 1625 
L 3713 1625 
L 3713 1100 
L 3047 1100 
L 3047 0 
L 2419 0 
L 2419 1100 
L 313 1100 
L 313 1709 
L 2253 4666 
z
" transform="scale(0.015625)"/>
       </defs>
       <use xlink:href="#DejaVuSans-30"/>
       <use xlink:href="#DejaVuSans-2e" transform="translate(63.623047 0)"/>
       <use xlink:href="#DejaVuSans-34" transform="translate(95.410156 0)"/>
      </g>
     </g>
    </g>
    <g id="ytick_4">
     <g id="line2d_6">
      <g>
       <use xlink:href="#m31a9f25bfe" x="90" y="57.115886" style="stroke: #000000; stroke-width: 0.8"/>
      </g>
     </g>
     <g id="text_6">
      <!-- 0.6 -->
      <g transform="translate(67.096875 60.915105) scale(0.1 -0.1)">
       <defs>
        <path id="DejaVuSans-36" d="M 2113 2584 
Q 1688 2584 1439 2293 
Q 1191 2003 1191 1497 
Q 1191 994 1439 701 
Q 1688 409 2113 409 
Q 2538 409 2786 701 
Q 3034 994 3034 1497 
Q 3034 2003 2786 2293 
Q 2538 2584 2113 2584 
z
M 3366 4563 
L 3366 3988 
Q 3128 4100 2886 4159 
Q 2644 4219 2406 4219 
Q 1781 4219 1451 3797 
Q 1122 3375 1075 2522 
Q 1259 2794 1537 2939 
Q 1816 3084 2150 3084 
Q 2853 3084 3261 2657 
Q 3669 2231 3669 1497 
Q 3669 778 3244 343 
Q 2819 -91 2113 -91 
Q 1303 -91 875 529 
Q 447 1150 447 2328 
Q 447 3434 972 4092 
Q 1497 4750 2381 4750 
Q 2619 4750 2861 4703 
Q 3103 4656 3366 4563 
z
" transform="scale(0.015625)"/>
       </defs>
       <use xlink:href="#DejaVuSans-30"/>
       <use xlink:href="#DejaVuSans-2e" transform="translate(63.623047 0)"/>
       <use xlink:href="#DejaVuSans-36" transform="translate(95.410156 0)"/>
      </g>
     </g>
    </g>
    <g id="text_7">
     <!-- Probability -->
     <g transform="translate(61.017187 127.186553) rotate(-90) scale(0.1 -0.1)">
      <defs>
       <path id="DejaVuSans-50" d="M 1259 4147 
L 1259 2394 
L 2053 2394 
Q 2494 2394 2734 2622 
Q 2975 2850 2975 3272 
Q 2975 3691 2734 3919 
Q 2494 4147 2053 4147 
L 1259 4147 
z
M 628 4666 
L 2053 4666 
Q 2838 4666 3239 4311 
Q 3641 3956 3641 3272 
Q 3641 2581 3239 2228 
Q 2838 1875 2053 1875 
L 1259 1875 
L 1259 0 
L 628 0 
L 628 4666 
z
" transform="scale(0.015625)"/>
       <path id="DejaVuSans-72" d="M 2631 2963 
Q 2534 3019 2420 3045 
Q 2306 3072 2169 3072 
Q 1681 3072 1420 2755 
Q 1159 2438 1159 1844 
L 1159 0 
L 581 0 
L 581 3500 
L 1159 3500 
L 1159 2956 
Q 1341 3275 1631 3429 
Q 1922 3584 2338 3584 
Q 2397 3584 2469 3576 
Q 2541 3569 2628 3553 
L 2631 2963 
z
" transform="scale(0.015625)"/>
       <path id="DejaVuSans-6f" d="M 1959 3097 
Q 1497 3097 1228 2736 
Q 959 2375 959 1747 
Q 959 1119 1226 758 
Q 1494 397 1959 397 
Q 2419 397 2687 759 
Q 2956 1122 2956 1747 
Q 2956 2369 2687 2733 
Q 2419 3097 1959 3097 
z
M 1959 3584 
Q 2709 3584 3137 3096 
Q 3566 2609 3566 1747 
Q 3566 888 3137 398 
Q 2709 -91 1959 -91 
Q 1206 -91 779 398 
Q 353 888 353 1747 
Q 353 2609 779 3096 
Q 1206 3584 1959 3584 
z
" transform="scale(0.015625)"/>
       <path id="DejaVuSans-62" d="M 3116 1747 
Q 3116 2381 2855 2742 
Q 2594 3103 2138 3103 
Q 1681 3103 1420 2742 
Q 1159 2381 1159 1747 
Q 1159 1113 1420 752 
Q 1681 391 2138 391 
Q 2594 391 2855 752 
Q 3116 1113 3116 1747 
z
M 1159 2969 
Q 1341 3281 1617 3432 
Q 1894 3584 2278 3584 
Q 2916 3584 3314 3078 
Q 3713 2572 3713 1747 
Q 3713 922 3314 415 
Q 2916 -91 2278 -91 
Q 1894 -91 1617 61 
Q 1341 213 1159 525 
L 1159 0 
L 581 0 
L 581 4863 
L 1159 4863 
L 1159 2969 
z
" transform="scale(0.015625)"/>
       <path id="DejaVuSans-61" d="M 2194 1759 
Q 1497 1759 1228 1600 
Q 959 1441 959 1056 
Q 959 750 1161 570 
Q 1363 391 1709 391 
Q 2188 391 2477 730 
Q 2766 1069 2766 1631 
L 2766 1759 
L 2194 1759 
z
M 3341 1997 
L 3341 0 
L 2766 0 
L 2766 531 
Q 2569 213 2275 61 
Q 1981 -91 1556 -91 
Q 1019 -91 701 211 
Q 384 513 384 1019 
Q 384 1609 779 1909 
Q 1175 2209 1959 2209 
L 2766 2209 
L 2766 2266 
Q 2766 2663 2505 2880 
Q 2244 3097 1772 3097 
Q 1472 3097 1187 3025 
Q 903 2953 641 2809 
L 641 3341 
Q 956 3463 1253 3523 
Q 1550 3584 1831 3584 
Q 2591 3584 2966 3190 
Q 3341 2797 3341 1997 
z
" transform="scale(0.015625)"/>
       <path id="DejaVuSans-69" d="M 603 3500 
L 1178 3500 
L 1178 0 
L 603 0 
L 603 3500 
z
M 603 4863 
L 1178 4863 
L 1178 4134 
L 603 4134 
L 603 4863 
z
" transform="scale(0.015625)"/>
       <path id="DejaVuSans-6c" d="M 603 4863 
L 1178 4863 
L 1178 0 
L 603 0 
L 603 4863 
z
" transform="scale(0.015625)"/>
       <path id="DejaVuSans-74" d="M 1172 4494 
L 1172 3500 
L 2356 3500 
L 2356 3053 
L 1172 3053 
L 1172 1153 
Q 1172 725 1289 603 
Q 1406 481 1766 481 
L 2356 481 
L 2356 0 
L 1766 0 
Q 1100 0 847 248 
Q 594 497 594 1153 
L 594 3053 
L 172 3053 
L 172 3500 
L 594 3500 
L 594 4494 
L 1172 4494 
z
" transform="scale(0.015625)"/>
       <path id="DejaVuSans-79" d="M 2059 -325 
Q 1816 -950 1584 -1140 
Q 1353 -1331 966 -1331 
L 506 -1331 
L 506 -850 
L 844 -850 
Q 1081 -850 1212 -737 
Q 1344 -625 1503 -206 
L 1606 56 
L 191 3500 
L 800 3500 
L 1894 763 
L 2988 3500 
L 3597 3500 
L 2059 -325 
z
" transform="scale(0.015625)"/>
      </defs>
      <use xlink:href="#DejaVuSans-50"/>
      <use xlink:href="#DejaVuSans-72" transform="translate(58.552734 0)"/>
      <use xlink:href="#DejaVuSans-6f" transform="translate(97.416016 0)"/>
      <use xlink:href="#DejaVuSans-62" transform="translate(158.597656 0)"/>
      <use xlink:href="#DejaVuSans-61" transform="translate(222.074219 0)"/>
      <use xlink:href="#DejaVuSans-62" transform="translate(283.353516 0)"/>
      <use xlink:href="#DejaVuSans-69" transform="translate(346.830078 0)"/>
      <use xlink:href="#DejaVuSans-6c" transform="translate(374.613281 0)"/>
      <use xlink:href="#DejaVuSans-69" transform="translate(402.396484 0)"/>
      <use xlink:href="#DejaVuSans-74" transform="translate(430.179688 0)"/>
      <use xlink:href="#DejaVuSans-79" transform="translate(469.388672 0)"/>
     </g>
    </g>
   </g>
   <g id="patch_7">
    <path d="M 90 149.675294 
L 90 51.84 
" style="fill: none; stroke: #000000; stroke-width: 0.8; stroke-linejoin: miter; stroke-linecap: square"/>
   </g>
   <g id="patch_8">
    <path d="M 648 149.675294 
L 648 51.84 
" style="fill: none; stroke: #000000; stroke-width: 0.8; stroke-linejoin: miter; stroke-linecap: square"/>
   </g>
   <g id="patch_9">
    <path d="M 90 149.675294 
L 648 149.675294 
" style="fill: none; stroke: #000000; stroke-width: 0.8; stroke-linejoin: miter; stroke-linecap: square"/>
   </g>
   <g id="patch_10">
    <path d="M 90 51.84 
L 648 51.84 
" style="fill: none; stroke: #000000; stroke-width: 0.8; stroke-linejoin: miter; stroke-linecap: square"/>
   </g>
   <g id="text_8">
    <!-- Bernoulli(p=0.6) (N=10000) -->
    <g transform="translate(284.299688 45.84) scale(0.12 -0.12)">
     <defs>
      <path id="DejaVuSans-42" d="M 1259 2228 
L 1259 519 
L 2272 519 
Q 2781 519 3026 730 
Q 3272 941 3272 1375 
Q 3272 1813 3026 2020 
Q 2781 2228 2272 2228 
L 1259 2228 
z
M 1259 4147 
L 1259 2741 
L 2194 2741 
Q 2656 2741 2882 2914 
Q 3109 3088 3109 3444 
Q 3109 3797 2882 3972 
Q 2656 4147 2194 4147 
L 1259 4147 
z
M 628 4666 
L 2241 4666 
Q 2963 4666 3353 4366 
Q 3744 4066 3744 3513 
Q 3744 3084 3544 2831 
Q 3344 2578 2956 2516 
Q 3422 2416 3680 2098 
Q 3938 1781 3938 1306 
Q 3938 681 3513 340 
Q 3088 0 2303 0 
L 628 0 
L 628 4666 
z
" transform="scale(0.015625)"/>
      <path id="DejaVuSans-65" d="M 3597 1894 
L 3597 1613 
L 953 1613 
Q 991 1019 1311 708 
Q 1631 397 2203 397 
Q 2534 397 2845 478 
Q 3156 559 3463 722 
L 3463 178 
Q 3153 47 2828 -22 
Q 2503 -91 2169 -91 
Q 1331 -91 842 396 
Q 353 884 353 1716 
Q 353 2575 817 3079 
Q 1281 3584 2069 3584 
Q 2775 3584 3186 3129 
Q 3597 2675 3597 1894 
z
M 3022 2063 
Q 3016 2534 2758 2815 
Q 2500 3097 2075 3097 
Q 1594 3097 1305 2825 
Q 1016 2553 972 2059 
L 3022 2063 
z
" transform="scale(0.015625)"/>
      <path id="DejaVuSans-6e" d="M 3513 2113 
L 3513 0 
L 2938 0 
L 2938 2094 
Q 2938 2591 2744 2837 
Q 2550 3084 2163 3084 
Q 1697 3084 1428 2787 
Q 1159 2491 1159 1978 
L 1159 0 
L 581 0 
L 581 3500 
L 1159 3500 
L 1159 2956 
Q 1366 3272 1645 3428 
Q 1925 3584 2291 3584 
Q 2894 3584 3203 3211 
Q 3513 2838 3513 2113 
z
" transform="scale(0.015625)"/>
      <path id="DejaVuSans-75" d="M 544 1381 
L 544 3500 
L 1119 3500 
L 1119 1403 
Q 1119 906 1312 657 
Q 1506 409 1894 409 
Q 2359 409 2629 706 
Q 2900 1003 2900 1516 
L 2900 3500 
L 3475 3500 
L 3475 0 
L 2900 0 
L 2900 538 
Q 2691 219 2414 64 
Q 2138 -91 1772 -91 
Q 1169 -91 856 284 
Q 544 659 544 1381 
z
M 1991 3584 
L 1991 3584 
z
" transform="scale(0.015625)"/>
      <path id="DejaVuSans-28" d="M 1984 4856 
Q 1566 4138 1362 3434 
Q 1159 2731 1159 2009 
Q 1159 1288 1364 580 
Q 1569 -128 1984 -844 
L 1484 -844 
Q 1016 -109 783 600 
Q 550 1309 550 2009 
Q 550 2706 781 3412 
Q 1013 4119 1484 4856 
L 1984 4856 
z
" transform="scale(0.015625)"/>
      <path id="DejaVuSans-70" d="M 1159 525 
L 1159 -1331 
L 581 -1331 
L 581 3500 
L 1159 3500 
L 1159 2969 
Q 1341 3281 1617 3432 
Q 1894 3584 2278 3584 
Q 2916 3584 3314 3078 
Q 3713 2572 3713 1747 
Q 3713 922 3314 415 
Q 2916 -91 2278 -91 
Q 1894 -91 1617 61 
Q 1341 213 1159 525 
z
M 3116 1747 
Q 3116 2381 2855 2742 
Q 2594 3103 2138 3103 
Q 1681 3103 1420 2742 
Q 1159 2381 1159 1747 
Q 1159 1113 1420 752 
Q 1681 391 2138 391 
Q 2594 391 2855 752 
Q 3116 1113 3116 1747 
z
" transform="scale(0.015625)"/>
      <path id="DejaVuSans-3d" d="M 678 2906 
L 4684 2906 
L 4684 2381 
L 678 2381 
L 678 2906 
z
M 678 1631 
L 4684 1631 
L 4684 1100 
L 678 1100 
L 678 1631 
z
" transform="scale(0.015625)"/>
      <path id="DejaVuSans-29" d="M 513 4856 
L 1013 4856 
Q 1481 4119 1714 3412 
Q 1947 2706 1947 2009 
Q 1947 1309 1714 600 
Q 1481 -109 1013 -844 
L 513 -844 
Q 928 -128 1133 580 
Q 1338 1288 1338 2009 
Q 1338 2731 1133 3434 
Q 928 4138 513 4856 
z
" transform="scale(0.015625)"/>
      <path id="DejaVuSans-20" transform="scale(0.015625)"/>
      <path id="DejaVuSans-4e" d="M 628 4666 
L 1478 4666 
L 3547 763 
L 3547 4666 
L 4159 4666 
L 4159 0 
L 3309 0 
L 1241 3903 
L 1241 0 
L 628 0 
L 628 4666 
z
" transform="scale(0.015625)"/>
     </defs>
     <use xlink:href="#DejaVuSans-42"/>
     <use xlink:href="#DejaVuSans-65" transform="translate(68.603516 0)"/>
     <use xlink:href="#DejaVuSans-72" transform="translate(130.126953 0)"/>
     <use xlink:href="#DejaVuSans-6e" transform="translate(169.490234 0)"/>
     <use xlink:href="#DejaVuSans-6f" transform="translate(232.869141 0)"/>
     <use xlink:href="#DejaVuSans-75" transform="translate(294.050781 0)"/>
     <use xlink:href="#DejaVuSans-6c" transform="translate(357.429688 0)"/>
     <use xlink:href="#DejaVuSans-6c" transform="translate(385.212891 0)"/>
     <use xlink:href="#DejaVuSans-69" transform="translate(412.996094 0)"/>
     <use xlink:href="#DejaVuSans-28" transform="translate(440.779297 0)"/>
     <use xlink:href="#DejaVuSans-70" transform="translate(479.792969 0)"/>
     <use xlink:href="#DejaVuSans-3d" transform="translate(543.269531 0)"/>
     <use xlink:href="#DejaVuSans-30" transform="translate(627.058594 0)"/>
     <use xlink:href="#DejaVuSans-2e" transform="translate(690.681641 0)"/>
     <use xlink:href="#DejaVuSans-36" transform="translate(722.46875 0)"/>
     <use xlink:href="#DejaVuSans-29" transform="translate(786.091797 0)"/>
     <use xlink:href="#DejaVuSans-20" transform="translate(825.105469 0)"/>
     <use xlink:href="#DejaVuSans-28" transform="translate(856.892578 0)"/>
     <use xlink:href="#DejaVuSans-4e" transform="translate(895.90625 0)"/>
     <use xlink:href="#DejaVuSans-3d" transform="translate(970.710938 0)"/>
     <use xlink:href="#DejaVuSans-31" transform="translate(1054.5 0)"/>
     <use xlink:href="#DejaVuSans-30" transform="translate(1118.123047 0)"/>
     <use xlink:href="#DejaVuSans-30" transform="translate(1181.746094 0)"/>
     <use xlink:href="#DejaVuSans-30" transform="translate(1245.369141 0)"/>
     <use xlink:href="#DejaVuSans-30" transform="translate(1308.992188 0)"/>
     <use xlink:href="#DejaVuSans-29" transform="translate(1372.615234 0)"/>
    </g>
   </g>
   <g id="legend_1">
    <g id="patch_11">
     <path d="M 503.414062 89.19625 
L 641 89.19625 
Q 643 89.19625 643 87.19625 
L 643 58.84 
Q 643 56.84 641 56.84 
L 503.414062 56.84 
Q 501.414062 56.84 501.414062 58.84 
L 501.414062 87.19625 
Q 501.414062 89.19625 503.414062 89.19625 
z
" style="fill: #ffffff; opacity: 0.8; stroke: #cccccc; stroke-linejoin: miter"/>
    </g>
    <g id="patch_12">
     <path d="M 505.414062 68.438437 
L 525.414062 68.438437 
L 525.414062 61.438437 
L 505.414062 61.438437 
z
" style="fill: #1f77b4"/>
    </g>
    <g id="text_9">
     <!-- Simulated Histogram -->
     <g transform="translate(533.414062 68.438437) scale(0.1 -0.1)">
      <defs>
       <path id="DejaVuSans-53" d="M 3425 4513 
L 3425 3897 
Q 3066 4069 2747 4153 
Q 2428 4238 2131 4238 
Q 1616 4238 1336 4038 
Q 1056 3838 1056 3469 
Q 1056 3159 1242 3001 
Q 1428 2844 1947 2747 
L 2328 2669 
Q 3034 2534 3370 2195 
Q 3706 1856 3706 1288 
Q 3706 609 3251 259 
Q 2797 -91 1919 -91 
Q 1588 -91 1214 -16 
Q 841 59 441 206 
L 441 856 
Q 825 641 1194 531 
Q 1563 422 1919 422 
Q 2459 422 2753 634 
Q 3047 847 3047 1241 
Q 3047 1584 2836 1778 
Q 2625 1972 2144 2069 
L 1759 2144 
Q 1053 2284 737 2584 
Q 422 2884 422 3419 
Q 422 4038 858 4394 
Q 1294 4750 2059 4750 
Q 2388 4750 2728 4690 
Q 3069 4631 3425 4513 
z
" transform="scale(0.015625)"/>
       <path id="DejaVuSans-6d" d="M 3328 2828 
Q 3544 3216 3844 3400 
Q 4144 3584 4550 3584 
Q 5097 3584 5394 3201 
Q 5691 2819 5691 2113 
L 5691 0 
L 5113 0 
L 5113 2094 
Q 5113 2597 4934 2840 
Q 4756 3084 4391 3084 
Q 3944 3084 3684 2787 
Q 3425 2491 3425 1978 
L 3425 0 
L 2847 0 
L 2847 2094 
Q 2847 2600 2669 2842 
Q 2491 3084 2119 3084 
Q 1678 3084 1418 2786 
Q 1159 2488 1159 1978 
L 1159 0 
L 581 0 
L 581 3500 
L 1159 3500 
L 1159 2956 
Q 1356 3278 1631 3431 
Q 1906 3584 2284 3584 
Q 2666 3584 2933 3390 
Q 3200 3197 3328 2828 
z
" transform="scale(0.015625)"/>
       <path id="DejaVuSans-64" d="M 2906 2969 
L 2906 4863 
L 3481 4863 
L 3481 0 
L 2906 0 
L 2906 525 
Q 2725 213 2448 61 
Q 2172 -91 1784 -91 
Q 1150 -91 751 415 
Q 353 922 353 1747 
Q 353 2572 751 3078 
Q 1150 3584 1784 3584 
Q 2172 3584 2448 3432 
Q 2725 3281 2906 2969 
z
M 947 1747 
Q 947 1113 1208 752 
Q 1469 391 1925 391 
Q 2381 391 2643 752 
Q 2906 1113 2906 1747 
Q 2906 2381 2643 2742 
Q 2381 3103 1925 3103 
Q 1469 3103 1208 2742 
Q 947 2381 947 1747 
z
" transform="scale(0.015625)"/>
       <path id="DejaVuSans-48" d="M 628 4666 
L 1259 4666 
L 1259 2753 
L 3553 2753 
L 3553 4666 
L 4184 4666 
L 4184 0 
L 3553 0 
L 3553 2222 
L 1259 2222 
L 1259 0 
L 628 0 
L 628 4666 
z
" transform="scale(0.015625)"/>
       <path id="DejaVuSans-73" d="M 2834 3397 
L 2834 2853 
Q 2591 2978 2328 3040 
Q 2066 3103 1784 3103 
Q 1356 3103 1142 2972 
Q 928 2841 928 2578 
Q 928 2378 1081 2264 
Q 1234 2150 1697 2047 
L 1894 2003 
Q 2506 1872 2764 1633 
Q 3022 1394 3022 966 
Q 3022 478 2636 193 
Q 2250 -91 1575 -91 
Q 1294 -91 989 -36 
Q 684 19 347 128 
L 347 722 
Q 666 556 975 473 
Q 1284 391 1588 391 
Q 1994 391 2212 530 
Q 2431 669 2431 922 
Q 2431 1156 2273 1281 
Q 2116 1406 1581 1522 
L 1381 1569 
Q 847 1681 609 1914 
Q 372 2147 372 2553 
Q 372 3047 722 3315 
Q 1072 3584 1716 3584 
Q 2034 3584 2315 3537 
Q 2597 3491 2834 3397 
z
" transform="scale(0.015625)"/>
       <path id="DejaVuSans-67" d="M 2906 1791 
Q 2906 2416 2648 2759 
Q 2391 3103 1925 3103 
Q 1463 3103 1205 2759 
Q 947 2416 947 1791 
Q 947 1169 1205 825 
Q 1463 481 1925 481 
Q 2391 481 2648 825 
Q 2906 1169 2906 1791 
z
M 3481 434 
Q 3481 -459 3084 -895 
Q 2688 -1331 1869 -1331 
Q 1566 -1331 1297 -1286 
Q 1028 -1241 775 -1147 
L 775 -588 
Q 1028 -725 1275 -790 
Q 1522 -856 1778 -856 
Q 2344 -856 2625 -561 
Q 2906 -266 2906 331 
L 2906 616 
Q 2728 306 2450 153 
Q 2172 0 1784 0 
Q 1141 0 747 490 
Q 353 981 353 1791 
Q 353 2603 747 3093 
Q 1141 3584 1784 3584 
Q 2172 3584 2450 3431 
Q 2728 3278 2906 2969 
L 2906 3500 
L 3481 3500 
L 3481 434 
z
" transform="scale(0.015625)"/>
      </defs>
      <use xlink:href="#DejaVuSans-53"/>
      <use xlink:href="#DejaVuSans-69" transform="translate(63.476562 0)"/>
      <use xlink:href="#DejaVuSans-6d" transform="translate(91.259766 0)"/>
      <use xlink:href="#DejaVuSans-75" transform="translate(188.671875 0)"/>
      <use xlink:href="#DejaVuSans-6c" transform="translate(252.050781 0)"/>
      <use xlink:href="#DejaVuSans-61" transform="translate(279.833984 0)"/>
      <use xlink:href="#DejaVuSans-74" transform="translate(341.113281 0)"/>
      <use xlink:href="#DejaVuSans-65" transform="translate(380.322266 0)"/>
      <use xlink:href="#DejaVuSans-64" transform="translate(441.845703 0)"/>
      <use xlink:href="#DejaVuSans-20" transform="translate(505.322266 0)"/>
      <use xlink:href="#DejaVuSans-48" transform="translate(537.109375 0)"/>
      <use xlink:href="#DejaVuSans-69" transform="translate(612.304688 0)"/>
      <use xlink:href="#DejaVuSans-73" transform="translate(640.087891 0)"/>
      <use xlink:href="#DejaVuSans-74" transform="translate(692.1875 0)"/>
      <use xlink:href="#DejaVuSans-6f" transform="translate(731.396484 0)"/>
      <use xlink:href="#DejaVuSans-67" transform="translate(792.578125 0)"/>
      <use xlink:href="#DejaVuSans-72" transform="translate(856.054688 0)"/>
      <use xlink:href="#DejaVuSans-61" transform="translate(897.167969 0)"/>
      <use xlink:href="#DejaVuSans-6d" transform="translate(958.447266 0)"/>
     </g>
    </g>
    <g id="patch_13">
     <path d="M 505.414062 83.116562 
L 525.414062 83.116562 
L 525.414062 76.116562 
L 505.414062 76.116562 
L 505.414062 83.116562 
z
" style="fill: none; stroke: #ff0000; stroke-width: 1.1; stroke-linejoin: miter"/>
    </g>
    <g id="text_10">
     <!-- Theoretical PMF -->
     <g transform="translate(533.414062 83.116562) scale(0.1 -0.1)">
      <defs>
       <path id="DejaVuSans-54" d="M -19 4666 
L 3928 4666 
L 3928 4134 
L 2272 4134 
L 2272 0 
L 1638 0 
L 1638 4134 
L -19 4134 
L -19 4666 
z
" transform="scale(0.015625)"/>
       <path id="DejaVuSans-68" d="M 3513 2113 
L 3513 0 
L 2938 0 
L 2938 2094 
Q 2938 2591 2744 2837 
Q 2550 3084 2163 3084 
Q 1697 3084 1428 2787 
Q 1159 2491 1159 1978 
L 1159 0 
L 581 0 
L 581 4863 
L 1159 4863 
L 1159 2956 
Q 1366 3272 1645 3428 
Q 1925 3584 2291 3584 
Q 2894 3584 3203 3211 
Q 3513 2838 3513 2113 
z
" transform="scale(0.015625)"/>
       <path id="DejaVuSans-63" d="M 3122 3366 
L 3122 2828 
Q 2878 2963 2633 3030 
Q 2388 3097 2138 3097 
Q 1578 3097 1268 2742 
Q 959 2388 959 1747 
Q 959 1106 1268 751 
Q 1578 397 2138 397 
Q 2388 397 2633 464 
Q 2878 531 3122 666 
L 3122 134 
Q 2881 22 2623 -34 
Q 2366 -91 2075 -91 
Q 1284 -91 818 406 
Q 353 903 353 1747 
Q 353 2603 823 3093 
Q 1294 3584 2113 3584 
Q 2378 3584 2631 3529 
Q 2884 3475 3122 3366 
z
" transform="scale(0.015625)"/>
       <path id="DejaVuSans-4d" d="M 628 4666 
L 1569 4666 
L 2759 1491 
L 3956 4666 
L 4897 4666 
L 4897 0 
L 4281 0 
L 4281 4097 
L 3078 897 
L 2444 897 
L 1241 4097 
L 1241 0 
L 628 0 
L 628 4666 
z
" transform="scale(0.015625)"/>
       <path id="DejaVuSans-46" d="M 628 4666 
L 3309 4666 
L 3309 4134 
L 1259 4134 
L 1259 2759 
L 3109 2759 
L 3109 2228 
L 1259 2228 
L 1259 0 
L 628 0 
L 628 4666 
z
" transform="scale(0.015625)"/>
      </defs>
      <use xlink:href="#DejaVuSans-54"/>
      <use xlink:href="#DejaVuSans-68" transform="translate(61.083984 0)"/>
      <use xlink:href="#DejaVuSans-65" transform="translate(124.462891 0)"/>
      <use xlink:href="#DejaVuSans-6f" transform="translate(185.986328 0)"/>
      <use xlink:href="#DejaVuSans-72" transform="translate(247.167969 0)"/>
      <use xlink:href="#DejaVuSans-65" transform="translate(286.03125 0)"/>
      <use xlink:href="#DejaVuSans-74" transform="translate(347.554688 0)"/>
      <use xlink:href="#DejaVuSans-69" transform="translate(386.763672 0)"/>
      <use xlink:href="#DejaVuSans-63" transform="translate(414.546875 0)"/>
      <use xlink:href="#DejaVuSans-61" transform="translate(469.527344 0)"/>
      <use xlink:href="#DejaVuSans-6c" transform="translate(530.806641 0)"/>
      <use xlink:href="#DejaVuSans-20" transform="translate(558.589844 0)"/>
      <use xlink:href="#DejaVuSans-50" transform="translate(590.376953 0)"/>
      <use xlink:href="#DejaVuSans-4d" transform="translate(650.679688 0)"/>
      <use xlink:href="#DejaVuSans-46" transform="translate(736.958984 0)"/>
     </g>
    </g>
   </g>
  </g>
  <g id="axes_2">
   <g id="patch_14">
    <path d="M 90 267.077647 
L 648 267.077647 
L 648 169.242353 
L 90 169.242353 
z
" style="fill: #ffffff"/>
   </g>
   <g id="patch_15">
    <path d="M 115.363636 267.077647 
L 128.539551 267.077647 
L 128.539551 267.077647 
L 115.363636 267.077647 
z
" clip-path="url(#pce3d2e2a39)" style="fill: #1f77b4"/>
   </g>
   <g id="patch_16">
    <path d="M 131.83353 267.077647 
L 145.009445 267.077647 
L 145.009445 267.077647 
L 131.83353 267.077647 
z
" clip-path="url(#pce3d2e2a39)" style="fill: #1f77b4"/>
   </g>
   <g id="patch_17">
    <path d="M 148.303424 267.077647 
L 161.479339 267.077647 
L 161.479339 267.077647 
L 148.303424 267.077647 
z
" clip-path="url(#pce3d2e2a39)" style="fill: #1f77b4"/>
   </g>
   <g id="patch_18">
    <path d="M 164.773318 267.077647 
L 177.949233 267.077647 
L 177.949233 267.077647 
L 164.773318 267.077647 
z
" clip-path="url(#pce3d2e2a39)" style="fill: #1f77b4"/>
   </g>
   <g id="patch_19">
    <path d="M 181.243211 267.077647 
L 194.419126 267.077647 
L 194.419126 267.077647 
L 181.243211 267.077647 
z
" clip-path="url(#pce3d2e2a39)" style="fill: #1f77b4"/>
   </g>
   <g id="patch_20">
    <path d="M 197.713105 267.077647 
L 210.88902 267.077647 
L 210.88902 267.077647 
L 197.713105 267.077647 
z
" clip-path="url(#pce3d2e2a39)" style="fill: #1f77b4"/>
   </g>
   <g id="patch_21">
    <path d="M 214.182999 267.077647 
L 227.358914 267.077647 
L 227.358914 267.077647 
L 214.182999 267.077647 
z
" clip-path="url(#pce3d2e2a39)" style="fill: #1f77b4"/>
   </g>
   <g id="patch_22">
    <path d="M 230.652893 267.077647 
L 243.828808 267.077647 
L 243.828808 267.077647 
L 230.652893 267.077647 
z
" clip-path="url(#pce3d2e2a39)" style="fill: #1f77b4"/>
   </g>
   <g id="patch_23">
    <path d="M 247.122786 267.077647 
L 260.298701 267.077647 
L 260.298701 266.892651 
L 247.122786 266.892651 
z
" clip-path="url(#pce3d2e2a39)" style="fill: #1f77b4"/>
   </g>
   <g id="patch_24">
    <path d="M 263.59268 267.077647 
L 276.768595 267.077647 
L 276.768595 266.707654 
L 263.59268 266.707654 
z
" clip-path="url(#pce3d2e2a39)" style="fill: #1f77b4"/>
   </g>
   <g id="patch_25">
    <path d="M 280.062574 267.077647 
L 293.238489 267.077647 
L 293.238489 265.721008 
L 280.062574 265.721008 
z
" clip-path="url(#pce3d2e2a39)" style="fill: #1f77b4"/>
   </g>
   <g id="patch_26">
    <path d="M 296.532468 267.077647 
L 309.708383 267.077647 
L 309.708383 263.624383 
L 296.532468 263.624383 
z
" clip-path="url(#pce3d2e2a39)" style="fill: #1f77b4"/>
   </g>
   <g id="patch_27">
    <path d="M 313.002361 267.077647 
L 326.178276 267.077647 
L 326.178276 259.801126 
L 313.002361 259.801126 
z
" clip-path="url(#pce3d2e2a39)" style="fill: #1f77b4"/>
   </g>
   <g id="patch_28">
    <path d="M 329.472255 267.077647 
L 342.64817 267.077647 
L 342.64817 251.352961 
L 329.472255 251.352961 
z
" clip-path="url(#pce3d2e2a39)" style="fill: #1f77b4"/>
   </g>
   <g id="patch_29">
    <path d="M 345.942149 267.077647 
L 359.118064 267.077647 
L 359.118064 237.108246 
L 345.942149 237.108246 
z
" clip-path="url(#pce3d2e2a39)" style="fill: #1f77b4"/>
   </g>
   <g id="patch_30">
    <path d="M 362.412043 267.077647 
L 375.587957 267.077647 
L 375.587957 217.190311 
L 362.412043 217.190311 
z
" clip-path="url(#pce3d2e2a39)" style="fill: #1f77b4"/>
   </g>
   <g id="patch_31">
    <path d="M 378.881936 267.077647 
L 392.057851 267.077647 
L 392.057851 203.253923 
L 378.881936 203.253923 
z
" clip-path="url(#pce3d2e2a39)" style="fill: #1f77b4"/>
   </g>
   <g id="patch_32">
    <path d="M 395.35183 267.077647 
L 408.527745 267.077647 
L 408.527745 181.239363 
L 395.35183 181.239363 
z
" clip-path="url(#pce3d2e2a39)" style="fill: #1f77b4"/>
   </g>
   <g id="patch_33">
    <path d="M 411.821724 267.077647 
L 424.997639 267.077647 
L 424.997639 173.901176 
L 411.821724 173.901176 
z
" clip-path="url(#pce3d2e2a39)" style="fill: #1f77b4"/>
   </g>
   <g id="patch_34">
    <path d="M 428.291617 267.077647 
L 441.467532 267.077647 
L 441.467532 181.671021 
L 428.291617 181.671021 
z
" clip-path="url(#pce3d2e2a39)" style="fill: #1f77b4"/>
   </g>
   <g id="patch_35">
    <path d="M 444.761511 267.077647 
L 457.937426 267.077647 
L 457.937426 194.435766 
L 444.761511 194.435766 
z
" clip-path="url(#pce3d2e2a39)" style="fill: #1f77b4"/>
   </g>
   <g id="patch_36">
    <path d="M 461.231405 267.077647 
L 474.40732 267.077647 
L 474.40732 216.696988 
L 461.231405 216.696988 
z
" clip-path="url(#pce3d2e2a39)" style="fill: #1f77b4"/>
   </g>
   <g id="patch_37">
    <path d="M 477.701299 267.077647 
L 490.877214 267.077647 
L 490.877214 237.724901 
L 477.701299 237.724901 
z
" clip-path="url(#pce3d2e2a39)" style="fill: #1f77b4"/>
   </g>
   <g id="patch_38">
    <path d="M 494.171192 267.077647 
L 507.347107 267.077647 
L 507.347107 250.736307 
L 494.171192 250.736307 
z
" clip-path="url(#pce3d2e2a39)" style="fill: #1f77b4"/>
   </g>
   <g id="patch_39">
    <path d="M 510.641086 267.077647 
L 523.817001 267.077647 
L 523.817001 259.677795 
L 510.641086 259.677795 
z
" clip-path="url(#pce3d2e2a39)" style="fill: #1f77b4"/>
   </g>
   <g id="patch_40">
    <path d="M 527.11098 267.077647 
L 540.286895 267.077647 
L 540.286895 263.809379 
L 527.11098 263.809379 
z
" clip-path="url(#pce3d2e2a39)" style="fill: #1f77b4"/>
   </g>
   <g id="patch_41">
    <path d="M 543.580874 267.077647 
L 556.756789 267.077647 
L 556.756789 266.460993 
L 543.580874 266.460993 
z
" clip-path="url(#pce3d2e2a39)" style="fill: #1f77b4"/>
   </g>
   <g id="patch_42">
    <path d="M 560.050767 267.077647 
L 573.226682 267.077647 
L 573.226682 266.892651 
L 560.050767 266.892651 
z
" clip-path="url(#pce3d2e2a39)" style="fill: #1f77b4"/>
   </g>
   <g id="patch_43">
    <path d="M 576.520661 267.077647 
L 589.696576 267.077647 
L 589.696576 267.077647 
L 576.520661 267.077647 
z
" clip-path="url(#pce3d2e2a39)" style="fill: #1f77b4"/>
   </g>
   <g id="patch_44">
    <path d="M 592.990555 267.077647 
L 606.16647 267.077647 
L 606.16647 267.077647 
L 592.990555 267.077647 
z
" clip-path="url(#pce3d2e2a39)" style="fill: #1f77b4"/>
   </g>
   <g id="patch_45">
    <path d="M 609.460449 267.077647 
L 622.636364 267.077647 
L 622.636364 267.077647 
L 609.460449 267.077647 
z
" clip-path="url(#pce3d2e2a39)" style="fill: #1f77b4"/>
   </g>
   <g id="patch_46">
    <path d="M 115.363636 267.077647 
L 128.539551 267.077647 
L 128.539551 267.077647 
L 115.363636 267.077647 
L 115.363636 267.077647 
z
" clip-path="url(#pce3d2e2a39)" style="fill: none; opacity: 0.9; stroke: #ff0000; stroke-width: 1.1; stroke-linejoin: miter"/>
   </g>
   <g id="patch_47">
    <path d="M 131.83353 267.077647 
L 145.009445 267.077647 
L 145.009445 267.077647 
L 131.83353 267.077647 
L 131.83353 267.077647 
z
" clip-path="url(#pce3d2e2a39)" style="fill: none; opacity: 0.9; stroke: #ff0000; stroke-width: 1.1; stroke-linejoin: miter"/>
   </g>
   <g id="patch_48">
    <path d="M 148.303424 267.077647 
L 161.479339 267.077647 
L 161.479339 267.077646 
L 148.303424 267.077646 
L 148.303424 267.077647 
z
" clip-path="url(#pce3d2e2a39)" style="fill: none; opacity: 0.9; stroke: #ff0000; stroke-width: 1.1; stroke-linejoin: miter"/>
   </g>
   <g id="patch_49">
    <path d="M 164.773318 267.077647 
L 177.949233 267.077647 
L 177.949233 267.077637 
L 164.773318 267.077637 
L 164.773318 267.077647 
z
" clip-path="url(#pce3d2e2a39)" style="fill: none; opacity: 0.9; stroke: #ff0000; stroke-width: 1.1; stroke-linejoin: miter"/>
   </g>
   <g id="patch_50">
    <path d="M 181.243211 267.077647 
L 194.419126 267.077647 
L 194.419126 267.077548 
L 181.243211 267.077548 
L 181.243211 267.077647 
z
" clip-path="url(#pce3d2e2a39)" style="fill: none; opacity: 0.9; stroke: #ff0000; stroke-width: 1.1; stroke-linejoin: miter"/>
   </g>
   <g id="patch_51">
    <path d="M 197.713105 267.077647 
L 210.88902 267.077647 
L 210.88902 267.076878 
L 197.713105 267.076878 
L 197.713105 267.077647 
z
" clip-path="url(#pce3d2e2a39)" style="fill: none; opacity: 0.9; stroke: #ff0000; stroke-width: 1.1; stroke-linejoin: miter"/>
   </g>
   <g id="patch_52">
    <path d="M 214.182999 267.077647 
L 227.358914 267.077647 
L 227.358914 267.072839 
L 214.182999 267.072839 
L 214.182999 267.077647 
z
" clip-path="url(#pce3d2e2a39)" style="fill: none; opacity: 0.9; stroke: #ff0000; stroke-width: 1.1; stroke-linejoin: miter"/>
   </g>
   <g id="patch_53">
    <path d="M 230.652893 267.077647 
L 243.828808 267.077647 
L 243.828808 267.052918 
L 230.652893 267.052918 
L 230.652893 267.077647 
z
" clip-path="url(#pce3d2e2a39)" style="fill: none; opacity: 0.9; stroke: #ff0000; stroke-width: 1.1; stroke-linejoin: miter"/>
   </g>
   <g id="patch_54">
    <path d="M 247.122786 267.077647 
L 260.298701 267.077647 
L 260.298701 266.971001 
L 247.122786 266.971001 
L 247.122786 267.077647 
z
" clip-path="url(#pce3d2e2a39)" style="fill: none; opacity: 0.9; stroke: #ff0000; stroke-width: 1.1; stroke-linejoin: miter"/>
   </g>
   <g id="patch_55">
    <path d="M 263.59268 267.077647 
L 276.768595 267.077647 
L 276.768595 266.686612 
L 263.59268 266.686612 
L 263.59268 267.077647 
z
" clip-path="url(#pce3d2e2a39)" style="fill: none; opacity: 0.9; stroke: #ff0000; stroke-width: 1.1; stroke-linejoin: miter"/>
   </g>
   <g id="patch_56">
    <path d="M 280.062574 267.077647 
L 293.238489 267.077647 
L 293.238489 265.845886 
L 280.062574 265.845886 
L 280.062574 267.077647 
z
" clip-path="url(#pce3d2e2a39)" style="fill: none; opacity: 0.9; stroke: #ff0000; stroke-width: 1.1; stroke-linejoin: miter"/>
   </g>
   <g id="patch_57">
    <path d="M 296.532468 267.077647 
L 309.708383 267.077647 
L 309.708383 263.718298 
L 296.532468 263.718298 
L 296.532468 267.077647 
z
" clip-path="url(#pce3d2e2a39)" style="fill: none; opacity: 0.9; stroke: #ff0000; stroke-width: 1.1; stroke-linejoin: miter"/>
   </g>
   <g id="patch_58">
    <path d="M 313.002361 267.077647 
L 326.178276 267.077647 
L 326.178276 259.099193 
L 313.002361 259.099193 
L 313.002361 267.077647 
z
" clip-path="url(#pce3d2e2a39)" style="fill: none; opacity: 0.9; stroke: #ff0000; stroke-width: 1.1; stroke-linejoin: miter"/>
   </g>
   <g id="patch_59">
    <path d="M 329.472255 267.077647 
L 342.64817 267.077647 
L 342.64817 250.507012 
L 329.472255 250.507012 
L 329.472255 267.077647 
z
" clip-path="url(#pce3d2e2a39)" style="fill: none; opacity: 0.9; stroke: #ff0000; stroke-width: 1.1; stroke-linejoin: miter"/>
   </g>
   <g id="patch_60">
    <path d="M 345.942149 267.077647 
L 359.118064 267.077647 
L 359.118064 236.89542 
L 345.942149 236.89542 
L 345.942149 267.077647 
z
" clip-path="url(#pce3d2e2a39)" style="fill: none; opacity: 0.9; stroke: #ff0000; stroke-width: 1.1; stroke-linejoin: miter"/>
   </g>
   <g id="patch_61">
    <path d="M 362.412043 267.077647 
L 375.587957 267.077647 
L 375.587957 218.786083 
L 362.412043 218.786083 
L 362.412043 267.077647 
z
" clip-path="url(#pce3d2e2a39)" style="fill: none; opacity: 0.9; stroke: #ff0000; stroke-width: 1.1; stroke-linejoin: miter"/>
   </g>
   <g id="patch_62">
    <path d="M 378.881936 267.077647 
L 392.057851 267.077647 
L 392.057851 199.167635 
L 378.881936 199.167635 
L 378.881936 267.077647 
z
" clip-path="url(#pce3d2e2a39)" style="fill: none; opacity: 0.9; stroke: #ff0000; stroke-width: 1.1; stroke-linejoin: miter"/>
   </g>
   <g id="patch_63">
    <path d="M 395.35183 267.077647 
L 408.527745 267.077647 
L 408.527745 183.188809 
L 395.35183 183.188809 
L 395.35183 267.077647 
z
" clip-path="url(#pce3d2e2a39)" style="fill: none; opacity: 0.9; stroke: #ff0000; stroke-width: 1.1; stroke-linejoin: miter"/>
   </g>
   <g id="patch_64">
    <path d="M 411.821724 267.077647 
L 424.997639 267.077647 
L 424.997639 176.198073 
L 411.821724 176.198073 
L 411.821724 267.077647 
z
" clip-path="url(#pce3d2e2a39)" style="fill: none; opacity: 0.9; stroke: #ff0000; stroke-width: 1.1; stroke-linejoin: miter"/>
   </g>
   <g id="patch_65">
    <path d="M 428.291617 267.077647 
L 441.467532 267.077647 
L 441.467532 180.981208 
L 428.291617 180.981208 
L 428.291617 267.077647 
z
" clip-path="url(#pce3d2e2a39)" style="fill: none; opacity: 0.9; stroke: #ff0000; stroke-width: 1.1; stroke-linejoin: miter"/>
   </g>
   <g id="patch_66">
    <path d="M 444.761511 267.077647 
L 457.937426 267.077647 
L 457.937426 196.048085 
L 444.761511 196.048085 
L 444.761511 267.077647 
z
" clip-path="url(#pce3d2e2a39)" style="fill: none; opacity: 0.9; stroke: #ff0000; stroke-width: 1.1; stroke-linejoin: miter"/>
   </g>
   <g id="patch_67">
    <path d="M 461.231405 267.077647 
L 474.40732 267.077647 
L 474.40732 216.342246 
L 461.231405 216.342246 
L 461.231405 267.077647 
z
" clip-path="url(#pce3d2e2a39)" style="fill: none; opacity: 0.9; stroke: #ff0000; stroke-width: 1.1; stroke-linejoin: miter"/>
   </g>
   <g id="patch_68">
    <path d="M 477.701299 267.077647 
L 490.877214 267.077647 
L 490.877214 235.94456 
L 477.701299 235.94456 
L 477.701299 267.077647 
z
" clip-path="url(#pce3d2e2a39)" style="fill: none; opacity: 0.9; stroke: #ff0000; stroke-width: 1.1; stroke-linejoin: miter"/>
   </g>
   <g id="patch_69">
    <path d="M 494.171192 267.077647 
L 507.347107 267.077647 
L 507.347107 250.834297 
L 494.171192 250.834297 
L 494.171192 267.077647 
z
" clip-path="url(#pce3d2e2a39)" style="fill: none; opacity: 0.9; stroke: #ff0000; stroke-width: 1.1; stroke-linejoin: miter"/>
   </g>
   <g id="patch_70">
    <path d="M 510.641086 267.077647 
L 523.817001 267.077647 
L 523.817001 259.971181 
L 510.641086 259.971181 
L 510.641086 267.077647 
z
" clip-path="url(#pce3d2e2a39)" style="fill: none; opacity: 0.9; stroke: #ff0000; stroke-width: 1.1; stroke-linejoin: miter"/>
   </g>
   <g id="patch_71">
    <path d="M 527.11098 267.077647 
L 540.286895 267.077647 
L 540.286895 264.519319 
L 527.11098 264.519319 
L 527.11098 267.077647 
z
" clip-path="url(#pce3d2e2a39)" style="fill: none; opacity: 0.9; stroke: #ff0000; stroke-width: 1.1; stroke-linejoin: miter"/>
   </g>
   <g id="patch_72">
    <path d="M 543.580874 267.077647 
L 556.756789 267.077647 
L 556.756789 266.339668 
L 543.580874 266.339668 
L 543.580874 267.077647 
z
" clip-path="url(#pce3d2e2a39)" style="fill: none; opacity: 0.9; stroke: #ff0000; stroke-width: 1.1; stroke-linejoin: miter"/>
   </g>
   <g id="patch_73">
    <path d="M 560.050767 267.077647 
L 573.226682 267.077647 
L 573.226682 266.913652 
L 560.050767 266.913652 
L 560.050767 267.077647 
z
" clip-path="url(#pce3d2e2a39)" style="fill: none; opacity: 0.9; stroke: #ff0000; stroke-width: 1.1; stroke-linejoin: miter"/>
   </g>
   <g id="patch_74">
    <path d="M 576.520661 267.077647 
L 589.696576 267.077647 
L 589.696576 267.051291 
L 576.520661 267.051291 
L 576.520661 267.077647 
z
" clip-path="url(#pce3d2e2a39)" style="fill: none; opacity: 0.9; stroke: #ff0000; stroke-width: 1.1; stroke-linejoin: miter"/>
   </g>
   <g id="patch_75">
    <path d="M 592.990555 267.077647 
L 606.16647 267.077647 
L 606.16647 267.074921 
L 592.990555 267.074921 
L 592.990555 267.077647 
z
" clip-path="url(#pce3d2e2a39)" style="fill: none; opacity: 0.9; stroke: #ff0000; stroke-width: 1.1; stroke-linejoin: miter"/>
   </g>
   <g id="patch_76">
    <path d="M 609.460449 267.077647 
L 622.636364 267.077647 
L 622.636364 267.077511 
L 609.460449 267.077511 
L 609.460449 267.077647 
z
" clip-path="url(#pce3d2e2a39)" style="fill: none; opacity: 0.9; stroke: #ff0000; stroke-width: 1.1; stroke-linejoin: miter"/>
   </g>
   <g id="matplotlib.axis_3">
    <g id="xtick_3">
     <g id="line2d_7">
      <g>
       <use xlink:href="#m5a3cb3665f" x="121.951594" y="267.077647" style="stroke: #000000; stroke-width: 0.8"/>
      </g>
     </g>
     <g id="text_11">
      <!-- 0 -->
      <g transform="translate(118.770344 281.676085) scale(0.1 -0.1)">
       <use xlink:href="#DejaVuSans-30"/>
      </g>
     </g>
    </g>
    <g id="xtick_4">
     <g id="line2d_8">
      <g>
       <use xlink:href="#m5a3cb3665f" x="138.421488" y="267.077647" style="stroke: #000000; stroke-width: 0.8"/>
      </g>
     </g>
     <g id="text_12">
      <!-- 1 -->
      <g transform="translate(135.240238 281.676085) scale(0.1 -0.1)">
       <use xlink:href="#DejaVuSans-31"/>
      </g>
     </g>
    </g>
   </g>
   <g id="matplotlib.axis_4">
    <g id="ytick_5">
     <g id="line2d_9">
      <g>
       <use xlink:href="#m31a9f25bfe" x="90" y="267.077647" style="stroke: #000000; stroke-width: 0.8"/>
      </g>
     </g>
     <g id="text_13">
      <!-- 0.00 -->
      <g transform="translate(60.734375 270.876866) scale(0.1 -0.1)">
       <use xlink:href="#DejaVuSans-30"/>
       <use xlink:href="#DejaVuSans-2e" transform="translate(63.623047 0)"/>
       <use xlink:href="#DejaVuSans-30" transform="translate(95.410156 0)"/>
       <use xlink:href="#DejaVuSans-30" transform="translate(159.033203 0)"/>
      </g>
     </g>
    </g>
    <g id="ytick_6">
     <g id="line2d_10">
      <g>
       <use xlink:href="#m31a9f25bfe" x="90" y="236.24493" style="stroke: #000000; stroke-width: 0.8"/>
      </g>
     </g>
     <g id="text_14">
      <!-- 0.05 -->
      <g transform="translate(60.734375 240.044149) scale(0.1 -0.1)">
       <defs>
        <path id="DejaVuSans-35" d="M 691 4666 
L 3169 4666 
L 3169 4134 
L 1269 4134 
L 1269 2991 
Q 1406 3038 1543 3061 
Q 1681 3084 1819 3084 
Q 2600 3084 3056 2656 
Q 3513 2228 3513 1497 
Q 3513 744 3044 326 
Q 2575 -91 1722 -91 
Q 1428 -91 1123 -41 
Q 819 9 494 109 
L 494 744 
Q 775 591 1075 516 
Q 1375 441 1709 441 
Q 2250 441 2565 725 
Q 2881 1009 2881 1497 
Q 2881 1984 2565 2268 
Q 2250 2553 1709 2553 
Q 1456 2553 1204 2497 
Q 953 2441 691 2322 
L 691 4666 
z
" transform="scale(0.015625)"/>
       </defs>
       <use xlink:href="#DejaVuSans-30"/>
       <use xlink:href="#DejaVuSans-2e" transform="translate(63.623047 0)"/>
       <use xlink:href="#DejaVuSans-30" transform="translate(95.410156 0)"/>
       <use xlink:href="#DejaVuSans-35" transform="translate(159.033203 0)"/>
      </g>
     </g>
    </g>
    <g id="ytick_7">
     <g id="line2d_11">
      <g>
       <use xlink:href="#m31a9f25bfe" x="90" y="205.412213" style="stroke: #000000; stroke-width: 0.8"/>
      </g>
     </g>
     <g id="text_15">
      <!-- 0.10 -->
      <g transform="translate(60.734375 209.211432) scale(0.1 -0.1)">
       <use xlink:href="#DejaVuSans-30"/>
       <use xlink:href="#DejaVuSans-2e" transform="translate(63.623047 0)"/>
       <use xlink:href="#DejaVuSans-31" transform="translate(95.410156 0)"/>
       <use xlink:href="#DejaVuSans-30" transform="translate(159.033203 0)"/>
      </g>
     </g>
    </g>
    <g id="ytick_8">
     <g id="line2d_12">
      <g>
       <use xlink:href="#m31a9f25bfe" x="90" y="174.579496" style="stroke: #000000; stroke-width: 0.8"/>
      </g>
     </g>
     <g id="text_16">
      <!-- 0.15 -->
      <g transform="translate(60.734375 178.378715) scale(0.1 -0.1)">
       <use xlink:href="#DejaVuSans-30"/>
       <use xlink:href="#DejaVuSans-2e" transform="translate(63.623047 0)"/>
       <use xlink:href="#DejaVuSans-31" transform="translate(95.410156 0)"/>
       <use xlink:href="#DejaVuSans-35" transform="translate(159.033203 0)"/>
      </g>
     </g>
    </g>
    <g id="text_17">
     <!-- Probability -->
     <g transform="translate(54.654687 244.588906) rotate(-90) scale(0.1 -0.1)">
      <use xlink:href="#DejaVuSans-50"/>
      <use xlink:href="#DejaVuSans-72" transform="translate(58.552734 0)"/>
      <use xlink:href="#DejaVuSans-6f" transform="translate(97.416016 0)"/>
      <use xlink:href="#DejaVuSans-62" transform="translate(158.597656 0)"/>
      <use xlink:href="#DejaVuSans-61" transform="translate(222.074219 0)"/>
      <use xlink:href="#DejaVuSans-62" transform="translate(283.353516 0)"/>
      <use xlink:href="#DejaVuSans-69" transform="translate(346.830078 0)"/>
      <use xlink:href="#DejaVuSans-6c" transform="translate(374.613281 0)"/>
      <use xlink:href="#DejaVuSans-69" transform="translate(402.396484 0)"/>
      <use xlink:href="#DejaVuSans-74" transform="translate(430.179688 0)"/>
      <use xlink:href="#DejaVuSans-79" transform="translate(469.388672 0)"/>
     </g>
    </g>
   </g>
   <g id="patch_77">
    <path d="M 90 267.077647 
L 90 169.242353 
" style="fill: none; stroke: #000000; stroke-width: 0.8; stroke-linejoin: miter; stroke-linecap: square"/>
   </g>
   <g id="patch_78">
    <path d="M 648 267.077647 
L 648 169.242353 
" style="fill: none; stroke: #000000; stroke-width: 0.8; stroke-linejoin: miter; stroke-linecap: square"/>
   </g>
   <g id="patch_79">
    <path d="M 90 267.077647 
L 648 267.077647 
" style="fill: none; stroke: #000000; stroke-width: 0.8; stroke-linejoin: miter; stroke-linecap: square"/>
   </g>
   <g id="patch_80">
    <path d="M 90 169.242353 
L 648 169.242353 
" style="fill: none; stroke: #000000; stroke-width: 0.8; stroke-linejoin: miter; stroke-linecap: square"/>
   </g>
   <g id="text_18">
    <!-- Binomial(p=0.6) (k = 10000) (N=10000) -->
    <g transform="translate(246.642188 163.242353) scale(0.12 -0.12)">
     <defs>
      <path id="DejaVuSans-6b" d="M 581 4863 
L 1159 4863 
L 1159 1991 
L 2875 3500 
L 3609 3500 
L 1753 1863 
L 3688 0 
L 2938 0 
L 1159 1709 
L 1159 0 
L 581 0 
L 581 4863 
z
" transform="scale(0.015625)"/>
     </defs>
     <use xlink:href="#DejaVuSans-42"/>
     <use xlink:href="#DejaVuSans-69" transform="translate(68.603516 0)"/>
     <use xlink:href="#DejaVuSans-6e" transform="translate(96.386719 0)"/>
     <use xlink:href="#DejaVuSans-6f" transform="translate(159.765625 0)"/>
     <use xlink:href="#DejaVuSans-6d" transform="translate(220.947266 0)"/>
     <use xlink:href="#DejaVuSans-69" transform="translate(318.359375 0)"/>
     <use xlink:href="#DejaVuSans-61" transform="translate(346.142578 0)"/>
     <use xlink:href="#DejaVuSans-6c" transform="translate(407.421875 0)"/>
     <use xlink:href="#DejaVuSans-28" transform="translate(435.205078 0)"/>
     <use xlink:href="#DejaVuSans-70" transform="translate(474.21875 0)"/>
     <use xlink:href="#DejaVuSans-3d" transform="translate(537.695312 0)"/>
     <use xlink:href="#DejaVuSans-30" transform="translate(621.484375 0)"/>
     <use xlink:href="#DejaVuSans-2e" transform="translate(685.107422 0)"/>
     <use xlink:href="#DejaVuSans-36" transform="translate(716.894531 0)"/>
     <use xlink:href="#DejaVuSans-29" transform="translate(780.517578 0)"/>
     <use xlink:href="#DejaVuSans-20" transform="translate(819.53125 0)"/>
     <use xlink:href="#DejaVuSans-28" transform="translate(851.318359 0)"/>
     <use xlink:href="#DejaVuSans-6b" transform="translate(890.332031 0)"/>
     <use xlink:href="#DejaVuSans-20" transform="translate(948.242188 0)"/>
     <use xlink:href="#DejaVuSans-3d" transform="translate(980.029297 0)"/>
     <use xlink:href="#DejaVuSans-20" transform="translate(1063.818359 0)"/>
     <use xlink:href="#DejaVuSans-31" transform="translate(1095.605469 0)"/>
     <use xlink:href="#DejaVuSans-30" transform="translate(1159.228516 0)"/>
     <use xlink:href="#DejaVuSans-30" transform="translate(1222.851562 0)"/>
     <use xlink:href="#DejaVuSans-30" transform="translate(1286.474609 0)"/>
     <use xlink:href="#DejaVuSans-30" transform="translate(1350.097656 0)"/>
     <use xlink:href="#DejaVuSans-29" transform="translate(1413.720703 0)"/>
     <use xlink:href="#DejaVuSans-20" transform="translate(1452.734375 0)"/>
     <use xlink:href="#DejaVuSans-28" transform="translate(1484.521484 0)"/>
     <use xlink:href="#DejaVuSans-4e" transform="translate(1523.535156 0)"/>
     <use xlink:href="#DejaVuSans-3d" transform="translate(1598.339844 0)"/>
     <use xlink:href="#DejaVuSans-31" transform="translate(1682.128906 0)"/>
     <use xlink:href="#DejaVuSans-30" transform="translate(1745.751953 0)"/>
     <use xlink:href="#DejaVuSans-30" transform="translate(1809.375 0)"/>
     <use xlink:href="#DejaVuSans-30" transform="translate(1872.998047 0)"/>
     <use xlink:href="#DejaVuSans-30" transform="translate(1936.621094 0)"/>
     <use xlink:href="#DejaVuSans-29" transform="translate(2000.244141 0)"/>
    </g>
   </g>
   <g id="legend_2">
    <g id="patch_81">
     <path d="M 499.49375 206.598603 
L 641 206.598603 
Q 643 206.598603 643 204.598603 
L 643 176.242353 
Q 643 174.242353 641 174.242353 
L 499.49375 174.242353 
Q 497.49375 174.242353 497.49375 176.242353 
L 497.49375 204.598603 
Q 497.49375 206.598603 499.49375 206.598603 
z
" style="fill: #ffffff; opacity: 0.8; stroke: #cccccc; stroke-linejoin: miter"/>
    </g>
    <g id="patch_82">
     <path d="M 501.49375 185.84079 
L 521.49375 185.84079 
L 521.49375 178.84079 
L 501.49375 178.84079 
z
" style="fill: #1f77b4"/>
    </g>
    <g id="text_19">
     <!-- Simultated Histogram -->
     <g transform="translate(529.49375 185.84079) scale(0.1 -0.1)">
      <use xlink:href="#DejaVuSans-53"/>
      <use xlink:href="#DejaVuSans-69" transform="translate(63.476562 0)"/>
      <use xlink:href="#DejaVuSans-6d" transform="translate(91.259766 0)"/>
      <use xlink:href="#DejaVuSans-75" transform="translate(188.671875 0)"/>
      <use xlink:href="#DejaVuSans-6c" transform="translate(252.050781 0)"/>
      <use xlink:href="#DejaVuSans-74" transform="translate(279.833984 0)"/>
      <use xlink:href="#DejaVuSans-61" transform="translate(319.042969 0)"/>
      <use xlink:href="#DejaVuSans-74" transform="translate(380.322266 0)"/>
      <use xlink:href="#DejaVuSans-65" transform="translate(419.53125 0)"/>
      <use xlink:href="#DejaVuSans-64" transform="translate(481.054688 0)"/>
      <use xlink:href="#DejaVuSans-20" transform="translate(544.53125 0)"/>
      <use xlink:href="#DejaVuSans-48" transform="translate(576.318359 0)"/>
      <use xlink:href="#DejaVuSans-69" transform="translate(651.513672 0)"/>
      <use xlink:href="#DejaVuSans-73" transform="translate(679.296875 0)"/>
      <use xlink:href="#DejaVuSans-74" transform="translate(731.396484 0)"/>
      <use xlink:href="#DejaVuSans-6f" transform="translate(770.605469 0)"/>
      <use xlink:href="#DejaVuSans-67" transform="translate(831.787109 0)"/>
      <use xlink:href="#DejaVuSans-72" transform="translate(895.263672 0)"/>
      <use xlink:href="#DejaVuSans-61" transform="translate(936.376953 0)"/>
      <use xlink:href="#DejaVuSans-6d" transform="translate(997.65625 0)"/>
     </g>
    </g>
    <g id="patch_83">
     <path d="M 501.49375 200.518915 
L 521.49375 200.518915 
L 521.49375 193.518915 
L 501.49375 193.518915 
L 501.49375 200.518915 
z
" style="fill: none; opacity: 0.9; stroke: #ff0000; stroke-width: 1.1; stroke-linejoin: miter"/>
    </g>
    <g id="text_20">
     <!-- Theoretical PMF -->
     <g transform="translate(529.49375 200.518915) scale(0.1 -0.1)">
      <use xlink:href="#DejaVuSans-54"/>
      <use xlink:href="#DejaVuSans-68" transform="translate(61.083984 0)"/>
      <use xlink:href="#DejaVuSans-65" transform="translate(124.462891 0)"/>
      <use xlink:href="#DejaVuSans-6f" transform="translate(185.986328 0)"/>
      <use xlink:href="#DejaVuSans-72" transform="translate(247.167969 0)"/>
      <use xlink:href="#DejaVuSans-65" transform="translate(286.03125 0)"/>
      <use xlink:href="#DejaVuSans-74" transform="translate(347.554688 0)"/>
      <use xlink:href="#DejaVuSans-69" transform="translate(386.763672 0)"/>
      <use xlink:href="#DejaVuSans-63" transform="translate(414.546875 0)"/>
      <use xlink:href="#DejaVuSans-61" transform="translate(469.527344 0)"/>
      <use xlink:href="#DejaVuSans-6c" transform="translate(530.806641 0)"/>
      <use xlink:href="#DejaVuSans-20" transform="translate(558.589844 0)"/>
      <use xlink:href="#DejaVuSans-50" transform="translate(590.376953 0)"/>
      <use xlink:href="#DejaVuSans-4d" transform="translate(650.679688 0)"/>
      <use xlink:href="#DejaVuSans-46" transform="translate(736.958984 0)"/>
     </g>
    </g>
   </g>
  </g>
  <g id="axes_3">
   <g id="patch_84">
    <path d="M 90 384.48 
L 648 384.48 
L 648 286.644706 
L 90 286.644706 
z
" style="fill: #ffffff"/>
   </g>
   <g id="patch_85">
    <path d="M 118.040201 384.48 
L 155.427136 384.48 
L 155.427136 291.303529 
L 118.040201 291.303529 
z
" clip-path="url(#pc74a2f48ec)" style="fill: #1f77b4"/>
   </g>
   <g id="patch_86">
    <path d="M 164.773869 384.48 
L 202.160804 384.48 
L 202.160804 347.680642 
L 164.773869 347.680642 
z
" clip-path="url(#pc74a2f48ec)" style="fill: #1f77b4"/>
   </g>
   <g id="patch_87">
    <path d="M 211.507538 384.48 
L 248.894472 384.48 
L 248.894472 369.041011 
L 211.507538 369.041011 
z
" clip-path="url(#pc74a2f48ec)" style="fill: #1f77b4"/>
   </g>
   <g id="patch_88">
    <path d="M 258.241206 384.48 
L 295.628141 384.48 
L 295.628141 378.636126 
L 258.241206 378.636126 
z
" clip-path="url(#pc74a2f48ec)" style="fill: #1f77b4"/>
   </g>
   <g id="patch_89">
    <path d="M 304.974874 384.48 
L 342.361809 384.48 
L 342.361809 381.999841 
L 304.974874 381.999841 
z
" clip-path="url(#pc74a2f48ec)" style="fill: #1f77b4"/>
   </g>
   <g id="patch_90">
    <path d="M 351.708543 384.48 
L 389.095477 384.48 
L 389.095477 383.782455 
L 351.708543 383.782455 
z
" clip-path="url(#pc74a2f48ec)" style="fill: #1f77b4"/>
   </g>
   <g id="patch_91">
    <path d="M 398.442211 384.48 
L 435.829146 384.48 
L 435.829146 384.200982 
L 398.442211 384.200982 
z
" clip-path="url(#pc74a2f48ec)" style="fill: #1f77b4"/>
   </g>
   <g id="patch_92">
    <path d="M 445.175879 384.48 
L 482.562814 384.48 
L 482.562814 384.293988 
L 445.175879 384.293988 
z
" clip-path="url(#pc74a2f48ec)" style="fill: #1f77b4"/>
   </g>
   <g id="patch_93">
    <path d="M 491.909548 384.48 
L 529.296482 384.48 
L 529.296482 384.402495 
L 491.909548 384.402495 
z
" clip-path="url(#pc74a2f48ec)" style="fill: #1f77b4"/>
   </g>
   <g id="patch_94">
    <path d="M 538.643216 384.48 
L 576.030151 384.48 
L 576.030151 384.448998 
L 538.643216 384.448998 
z
" clip-path="url(#pc74a2f48ec)" style="fill: #1f77b4"/>
   </g>
   <g id="patch_95">
    <path d="M 118.040201 384.48 
L 155.427136 384.48 
L 155.427136 291.47404 
L 118.040201 291.47404 
L 118.040201 384.48 
z
" clip-path="url(#pc74a2f48ec)" style="fill: none; opacity: 0.9; stroke: #ff0000; stroke-width: 1.1; stroke-linejoin: miter"/>
   </g>
   <g id="patch_96">
    <path d="M 164.773869 384.48 
L 202.160804 384.48 
L 202.160804 347.277616 
L 164.773869 347.277616 
L 164.773869 384.48 
z
" clip-path="url(#pc74a2f48ec)" style="fill: none; opacity: 0.9; stroke: #ff0000; stroke-width: 1.1; stroke-linejoin: miter"/>
   </g>
   <g id="patch_97">
    <path d="M 211.507538 384.48 
L 248.894472 384.48 
L 248.894472 369.599046 
L 211.507538 369.599046 
L 211.507538 384.48 
z
" clip-path="url(#pc74a2f48ec)" style="fill: none; opacity: 0.9; stroke: #ff0000; stroke-width: 1.1; stroke-linejoin: miter"/>
   </g>
   <g id="patch_98">
    <path d="M 258.241206 384.48 
L 295.628141 384.48 
L 295.628141 378.527619 
L 258.241206 378.527619 
L 258.241206 384.48 
z
" clip-path="url(#pc74a2f48ec)" style="fill: none; opacity: 0.9; stroke: #ff0000; stroke-width: 1.1; stroke-linejoin: miter"/>
   </g>
   <g id="patch_99">
    <path d="M 304.974874 384.48 
L 342.361809 384.48 
L 342.361809 382.099047 
L 304.974874 382.099047 
L 304.974874 384.48 
z
" clip-path="url(#pc74a2f48ec)" style="fill: none; opacity: 0.9; stroke: #ff0000; stroke-width: 1.1; stroke-linejoin: miter"/>
   </g>
   <g id="patch_100">
    <path d="M 351.708543 384.48 
L 389.095477 384.48 
L 389.095477 383.527619 
L 351.708543 383.527619 
L 351.708543 384.48 
z
" clip-path="url(#pc74a2f48ec)" style="fill: none; opacity: 0.9; stroke: #ff0000; stroke-width: 1.1; stroke-linejoin: miter"/>
   </g>
   <g id="patch_101">
    <path d="M 398.442211 384.48 
L 435.829146 384.48 
L 435.829146 384.099048 
L 398.442211 384.099048 
L 398.442211 384.48 
z
" clip-path="url(#pc74a2f48ec)" style="fill: none; opacity: 0.9; stroke: #ff0000; stroke-width: 1.1; stroke-linejoin: miter"/>
   </g>
   <g id="patch_102">
    <path d="M 445.175879 384.48 
L 482.562814 384.48 
L 482.562814 384.327619 
L 445.175879 384.327619 
L 445.175879 384.48 
z
" clip-path="url(#pc74a2f48ec)" style="fill: none; opacity: 0.9; stroke: #ff0000; stroke-width: 1.1; stroke-linejoin: miter"/>
   </g>
   <g id="patch_103">
    <path d="M 491.909548 384.48 
L 529.296482 384.48 
L 529.296482 384.419048 
L 491.909548 384.419048 
L 491.909548 384.48 
z
" clip-path="url(#pc74a2f48ec)" style="fill: none; opacity: 0.9; stroke: #ff0000; stroke-width: 1.1; stroke-linejoin: miter"/>
   </g>
   <g id="patch_104">
    <path d="M 538.643216 384.48 
L 576.030151 384.48 
L 576.030151 384.455619 
L 538.643216 384.455619 
L 538.643216 384.48 
z
" clip-path="url(#pc74a2f48ec)" style="fill: none; opacity: 0.9; stroke: #ff0000; stroke-width: 1.1; stroke-linejoin: miter"/>
   </g>
   <g id="patch_105">
    <path d="M 585.376884 384.48 
L 622.763819 384.48 
L 622.763819 384.470248 
L 585.376884 384.470248 
L 585.376884 384.48 
z
" clip-path="url(#pc74a2f48ec)" style="fill: none; opacity: 0.9; stroke: #ff0000; stroke-width: 1.1; stroke-linejoin: miter"/>
   </g>
   <g id="matplotlib.axis_5">
    <g id="xtick_5">
     <g id="line2d_13">
      <g>
       <use xlink:href="#m5a3cb3665f" x="90" y="384.48" style="stroke: #000000; stroke-width: 0.8"/>
      </g>
     </g>
     <g id="text_21">
      <!-- 0 -->
      <g transform="translate(86.81875 399.078438) scale(0.1 -0.1)">
       <use xlink:href="#DejaVuSans-30"/>
      </g>
     </g>
    </g>
    <g id="xtick_6">
     <g id="line2d_14">
      <g>
       <use xlink:href="#m5a3cb3665f" x="136.733668" y="384.48" style="stroke: #000000; stroke-width: 0.8"/>
      </g>
     </g>
     <g id="text_22">
      <!-- 1 -->
      <g transform="translate(133.552418 399.078438) scale(0.1 -0.1)">
       <use xlink:href="#DejaVuSans-31"/>
      </g>
     </g>
    </g>
   </g>
   <g id="matplotlib.axis_6">
    <g id="ytick_9">
     <g id="line2d_15">
      <g>
       <use xlink:href="#m31a9f25bfe" x="90" y="384.48" style="stroke: #000000; stroke-width: 0.8"/>
      </g>
     </g>
     <g id="text_23">
      <!-- 0.0 -->
      <g transform="translate(67.096875 388.279219) scale(0.1 -0.1)">
       <use xlink:href="#DejaVuSans-30"/>
       <use xlink:href="#DejaVuSans-2e" transform="translate(63.623047 0)"/>
       <use xlink:href="#DejaVuSans-30" transform="translate(95.410156 0)"/>
      </g>
     </g>
    </g>
    <g id="ytick_10">
     <g id="line2d_16">
      <g>
       <use xlink:href="#m31a9f25bfe" x="90" y="353.478013" style="stroke: #000000; stroke-width: 0.8"/>
      </g>
     </g>
     <g id="text_24">
      <!-- 0.2 -->
      <g transform="translate(67.096875 357.277232) scale(0.1 -0.1)">
       <use xlink:href="#DejaVuSans-30"/>
       <use xlink:href="#DejaVuSans-2e" transform="translate(63.623047 0)"/>
       <use xlink:href="#DejaVuSans-32" transform="translate(95.410156 0)"/>
      </g>
     </g>
    </g>
    <g id="ytick_11">
     <g id="line2d_17">
      <g>
       <use xlink:href="#m31a9f25bfe" x="90" y="322.476027" style="stroke: #000000; stroke-width: 0.8"/>
      </g>
     </g>
     <g id="text_25">
      <!-- 0.4 -->
      <g transform="translate(67.096875 326.275246) scale(0.1 -0.1)">
       <use xlink:href="#DejaVuSans-30"/>
       <use xlink:href="#DejaVuSans-2e" transform="translate(63.623047 0)"/>
       <use xlink:href="#DejaVuSans-34" transform="translate(95.410156 0)"/>
      </g>
     </g>
    </g>
    <g id="ytick_12">
     <g id="line2d_18">
      <g>
       <use xlink:href="#m31a9f25bfe" x="90" y="291.47404" style="stroke: #000000; stroke-width: 0.8"/>
      </g>
     </g>
     <g id="text_26">
      <!-- 0.6 -->
      <g transform="translate(67.096875 295.273259) scale(0.1 -0.1)">
       <use xlink:href="#DejaVuSans-30"/>
       <use xlink:href="#DejaVuSans-2e" transform="translate(63.623047 0)"/>
       <use xlink:href="#DejaVuSans-36" transform="translate(95.410156 0)"/>
      </g>
     </g>
    </g>
    <g id="text_27">
     <!-- Probability -->
     <g transform="translate(61.017187 361.991259) rotate(-90) scale(0.1 -0.1)">
      <use xlink:href="#DejaVuSans-50"/>
      <use xlink:href="#DejaVuSans-72" transform="translate(58.552734 0)"/>
      <use xlink:href="#DejaVuSans-6f" transform="translate(97.416016 0)"/>
      <use xlink:href="#DejaVuSans-62" transform="translate(158.597656 0)"/>
      <use xlink:href="#DejaVuSans-61" transform="translate(222.074219 0)"/>
      <use xlink:href="#DejaVuSans-62" transform="translate(283.353516 0)"/>
      <use xlink:href="#DejaVuSans-69" transform="translate(346.830078 0)"/>
      <use xlink:href="#DejaVuSans-6c" transform="translate(374.613281 0)"/>
      <use xlink:href="#DejaVuSans-69" transform="translate(402.396484 0)"/>
      <use xlink:href="#DejaVuSans-74" transform="translate(430.179688 0)"/>
      <use xlink:href="#DejaVuSans-79" transform="translate(469.388672 0)"/>
     </g>
    </g>
   </g>
   <g id="patch_106">
    <path d="M 90 384.48 
L 90 286.644706 
" style="fill: none; stroke: #000000; stroke-width: 0.8; stroke-linejoin: miter; stroke-linecap: square"/>
   </g>
   <g id="patch_107">
    <path d="M 648 384.48 
L 648 286.644706 
" style="fill: none; stroke: #000000; stroke-width: 0.8; stroke-linejoin: miter; stroke-linecap: square"/>
   </g>
   <g id="patch_108">
    <path d="M 90 384.48 
L 648 384.48 
" style="fill: none; stroke: #000000; stroke-width: 0.8; stroke-linejoin: miter; stroke-linecap: square"/>
   </g>
   <g id="patch_109">
    <path d="M 90 286.644706 
L 648 286.644706 
" style="fill: none; stroke: #000000; stroke-width: 0.8; stroke-linejoin: miter; stroke-linecap: square"/>
   </g>
   <g id="text_28">
    <!-- Geometric (p=0.6) (N=10000) -->
    <g transform="translate(277.506562 280.644706) scale(0.12 -0.12)">
     <defs>
      <path id="DejaVuSans-47" d="M 3809 666 
L 3809 1919 
L 2778 1919 
L 2778 2438 
L 4434 2438 
L 4434 434 
Q 4069 175 3628 42 
Q 3188 -91 2688 -91 
Q 1594 -91 976 548 
Q 359 1188 359 2328 
Q 359 3472 976 4111 
Q 1594 4750 2688 4750 
Q 3144 4750 3555 4637 
Q 3966 4525 4313 4306 
L 4313 3634 
Q 3963 3931 3569 4081 
Q 3175 4231 2741 4231 
Q 1884 4231 1454 3753 
Q 1025 3275 1025 2328 
Q 1025 1384 1454 906 
Q 1884 428 2741 428 
Q 3075 428 3337 486 
Q 3600 544 3809 666 
z
" transform="scale(0.015625)"/>
     </defs>
     <use xlink:href="#DejaVuSans-47"/>
     <use xlink:href="#DejaVuSans-65" transform="translate(77.490234 0)"/>
     <use xlink:href="#DejaVuSans-6f" transform="translate(139.013672 0)"/>
     <use xlink:href="#DejaVuSans-6d" transform="translate(200.195312 0)"/>
     <use xlink:href="#DejaVuSans-65" transform="translate(297.607422 0)"/>
     <use xlink:href="#DejaVuSans-74" transform="translate(359.130859 0)"/>
     <use xlink:href="#DejaVuSans-72" transform="translate(398.339844 0)"/>
     <use xlink:href="#DejaVuSans-69" transform="translate(439.453125 0)"/>
     <use xlink:href="#DejaVuSans-63" transform="translate(467.236328 0)"/>
     <use xlink:href="#DejaVuSans-20" transform="translate(522.216797 0)"/>
     <use xlink:href="#DejaVuSans-28" transform="translate(554.003906 0)"/>
     <use xlink:href="#DejaVuSans-70" transform="translate(593.017578 0)"/>
     <use xlink:href="#DejaVuSans-3d" transform="translate(656.494141 0)"/>
     <use xlink:href="#DejaVuSans-30" transform="translate(740.283203 0)"/>
     <use xlink:href="#DejaVuSans-2e" transform="translate(803.90625 0)"/>
     <use xlink:href="#DejaVuSans-36" transform="translate(835.693359 0)"/>
     <use xlink:href="#DejaVuSans-29" transform="translate(899.316406 0)"/>
     <use xlink:href="#DejaVuSans-20" transform="translate(938.330078 0)"/>
     <use xlink:href="#DejaVuSans-28" transform="translate(970.117188 0)"/>
     <use xlink:href="#DejaVuSans-4e" transform="translate(1009.130859 0)"/>
     <use xlink:href="#DejaVuSans-3d" transform="translate(1083.935547 0)"/>
     <use xlink:href="#DejaVuSans-31" transform="translate(1167.724609 0)"/>
     <use xlink:href="#DejaVuSans-30" transform="translate(1231.347656 0)"/>
     <use xlink:href="#DejaVuSans-30" transform="translate(1294.970703 0)"/>
     <use xlink:href="#DejaVuSans-30" transform="translate(1358.59375 0)"/>
     <use xlink:href="#DejaVuSans-30" transform="translate(1422.216797 0)"/>
     <use xlink:href="#DejaVuSans-29" transform="translate(1485.839844 0)"/>
    </g>
   </g>
   <g id="legend_3">
    <g id="patch_110">
     <path d="M 499.49375 324.000956 
L 641 324.000956 
Q 643 324.000956 643 322.000956 
L 643 293.644706 
Q 643 291.644706 641 291.644706 
L 499.49375 291.644706 
Q 497.49375 291.644706 497.49375 293.644706 
L 497.49375 322.000956 
Q 497.49375 324.000956 499.49375 324.000956 
z
" style="fill: #ffffff; opacity: 0.8; stroke: #cccccc; stroke-linejoin: miter"/>
    </g>
    <g id="patch_111">
     <path d="M 501.49375 303.243143 
L 521.49375 303.243143 
L 521.49375 296.243143 
L 501.49375 296.243143 
z
" style="fill: #1f77b4"/>
    </g>
    <g id="text_29">
     <!-- Simultated Histogram -->
     <g transform="translate(529.49375 303.243143) scale(0.1 -0.1)">
      <use xlink:href="#DejaVuSans-53"/>
      <use xlink:href="#DejaVuSans-69" transform="translate(63.476562 0)"/>
      <use xlink:href="#DejaVuSans-6d" transform="translate(91.259766 0)"/>
      <use xlink:href="#DejaVuSans-75" transform="translate(188.671875 0)"/>
      <use xlink:href="#DejaVuSans-6c" transform="translate(252.050781 0)"/>
      <use xlink:href="#DejaVuSans-74" transform="translate(279.833984 0)"/>
      <use xlink:href="#DejaVuSans-61" transform="translate(319.042969 0)"/>
      <use xlink:href="#DejaVuSans-74" transform="translate(380.322266 0)"/>
      <use xlink:href="#DejaVuSans-65" transform="translate(419.53125 0)"/>
      <use xlink:href="#DejaVuSans-64" transform="translate(481.054688 0)"/>
      <use xlink:href="#DejaVuSans-20" transform="translate(544.53125 0)"/>
      <use xlink:href="#DejaVuSans-48" transform="translate(576.318359 0)"/>
      <use xlink:href="#DejaVuSans-69" transform="translate(651.513672 0)"/>
      <use xlink:href="#DejaVuSans-73" transform="translate(679.296875 0)"/>
      <use xlink:href="#DejaVuSans-74" transform="translate(731.396484 0)"/>
      <use xlink:href="#DejaVuSans-6f" transform="translate(770.605469 0)"/>
      <use xlink:href="#DejaVuSans-67" transform="translate(831.787109 0)"/>
      <use xlink:href="#DejaVuSans-72" transform="translate(895.263672 0)"/>
      <use xlink:href="#DejaVuSans-61" transform="translate(936.376953 0)"/>
      <use xlink:href="#DejaVuSans-6d" transform="translate(997.65625 0)"/>
     </g>
    </g>
    <g id="patch_112">
     <path d="M 501.49375 317.921268 
L 521.49375 317.921268 
L 521.49375 310.921268 
L 501.49375 310.921268 
L 501.49375 317.921268 
z
" style="fill: none; opacity: 0.9; stroke: #ff0000; stroke-width: 1.1; stroke-linejoin: miter"/>
    </g>
    <g id="text_30">
     <!-- Theoretical PMF -->
     <g transform="translate(529.49375 317.921268) scale(0.1 -0.1)">
      <use xlink:href="#DejaVuSans-54"/>
      <use xlink:href="#DejaVuSans-68" transform="translate(61.083984 0)"/>
      <use xlink:href="#DejaVuSans-65" transform="translate(124.462891 0)"/>
      <use xlink:href="#DejaVuSans-6f" transform="translate(185.986328 0)"/>
      <use xlink:href="#DejaVuSans-72" transform="translate(247.167969 0)"/>
      <use xlink:href="#DejaVuSans-65" transform="translate(286.03125 0)"/>
      <use xlink:href="#DejaVuSans-74" transform="translate(347.554688 0)"/>
      <use xlink:href="#DejaVuSans-69" transform="translate(386.763672 0)"/>
      <use xlink:href="#DejaVuSans-63" transform="translate(414.546875 0)"/>
      <use xlink:href="#DejaVuSans-61" transform="translate(469.527344 0)"/>
      <use xlink:href="#DejaVuSans-6c" transform="translate(530.806641 0)"/>
      <use xlink:href="#DejaVuSans-20" transform="translate(558.589844 0)"/>
      <use xlink:href="#DejaVuSans-50" transform="translate(590.376953 0)"/>
      <use xlink:href="#DejaVuSans-4d" transform="translate(650.679688 0)"/>
      <use xlink:href="#DejaVuSans-46" transform="translate(736.958984 0)"/>
     </g>
    </g>
   </g>
  </g>
 </g>
 <defs>
  <clipPath id="p3f33cf696c">
   <rect x="90" y="51.84" width="558" height="97.835294"/>
  </clipPath>
  <clipPath id="pce3d2e2a39">
   <rect x="90" y="169.242353" width="558" height="97.835294"/>
  </clipPath>
  <clipPath id="pc74a2f48ec">
   <rect x="90" y="286.644706" width="558" height="97.835294"/>
  </clipPath>
 </defs>
</svg>
